<svg xmlns="http://www.w3.org/2000/svg" viewBox="0 0 90.35 90.35"><g id="a3610254-b3b1-4936-b1b0-3a191ae9d40d" data-name="Layer 2"><g id="bfff636b-5e2c-4c68-bae4-f0305607119e" data-name="Capa 1"><circle cx="45.18" cy="45.18" r="45.18" fill="#b5bec9"/><path d="M54.84,63.61a12,12,0,0,0,1.59-2l3.21-5a20.41,20.41,0,0,0,3.18-9.14A2.83,2.83,0,0,0,64.59,46l.12-.22,2-4.69a3.27,3.27,0,0,0-1.76-4l-.2-.1a2.07,2.07,0,0,0-1.83,0V28.9c0-2.79,1.15-9.84-3.07-12.77-6.7-4.64-20.11-5.5-23.62.33-10.64-1.63-10.64,6.36-10.64,13.23l.68,7.15a2.15,2.15,0,0,0-1,.22l-.2.1a3.26,3.26,0,0,0-1.76,4l2,4.69a2.39,2.39,0,0,0,.12.22,2.84,2.84,0,0,0,1.78,1.49,20.53,20.53,0,0,0,3.29,9.2l3.3,5A12.15,12.15,0,0,0,36,64.26c-.43,2.9-2.83,4.88-5.75,5.95-3.88,1.41-14.45,5-17.44,6a45.12,45.12,0,0,0,64.87.07c-2.24-.76-12.75-4.33-17.05-6C57.54,69,55,66.88,54.84,63.61Z" fill="#d90024"/></g></g></svg>