<svg xmlns="http://www.w3.org/2000/svg" viewBox="0 0 90.35 90.35"><g id="b961bdeb-533e-40b9-8d2e-1e203f198661" data-name="Layer 2"><g id="a73045d1-86d3-4b0c-a6cb-7d66a05b4cfe" data-name="Capa 1"><circle cx="45.18" cy="45.18" r="45.18" fill="#b5bec9"/><path d="M30.89,72c-3.57,1.3-12.82,4.44-16.6,5.72a45.12,45.12,0,0,0,62.24-.26c-3.85-1.31-11.69-4-15.25-5.41-3.1-1.22-5.68-3.38-5.79-6.65a12.58,12.58,0,0,0,1.59-2l3.2-5a20.33,20.33,0,0,0,3.18-9.14,2.78,2.78,0,0,0,1.77-1.48,1,1,0,0,0,.12-.23l2-4.68a3.27,3.27,0,0,0-1.77-4l-.2-.1a2,2,0,0,0-1.82,0V30.65c0-6.87-2-15.78-13.87-15.78-3.44,0-4,1.7-4,1.7s-1-1.7-4.06-1.7c-10.43,0-13.86,8.91-13.86,15.78v8.14a2,2,0,0,0-1.82,0l-.2.1a3.27,3.27,0,0,0-1.77,4l2,4.68a1.63,1.63,0,0,0,.11.23,2.85,2.85,0,0,0,1.79,1.49,20.39,20.39,0,0,0,3.28,9.2l3.3,5A12.44,12.44,0,0,0,36.64,66C36.22,68.91,33.82,70.89,30.89,72Z" fill="#d90024"/></g></g></svg>