<svg xmlns="http://www.w3.org/2000/svg" viewBox="0 0 90.35 90.35"><g id="a60c8626-f127-4921-8270-c1e9b22a6909" data-name="Layer 2"><g id="b23ef5f6-ff99-4065-92f4-d5ff2b34e507" data-name="Capa 1"><circle cx="45.18" cy="45.18" r="45.18" fill="#b5bec9"/><path d="M45.28,90a45,45,0,0,0,30-11.43,13.64,13.64,0,0,0-3.16-1.87L68.7,75.31a.74.74,0,0,1,0-.14c-.68-1.84-2.16-3.25-2.61-4.86-.53-1.9,0-3.86-.22-5.5-.31-1.94-1.42-3.64-1.44-5.32,0-1.9,1.06-3.63,1.26-5.36s-.46-3.7-.18-5.5,1.52-3.36,1.72-5.25c.17-1.69-.69-3.52-.69-5.47,0-1.59.81-3.23.52-4.74S65.33,30.41,64.74,29s-.49-3.28-1.35-4.57-2.61-1.89-3.71-3-1.69-2.84-3-3.71-3.12-.74-4.57-1.34-2.63-2-4.18-2.28a7.85,7.85,0,0,0-3,.28,2.84,2.84,0,0,1-1.23,0,7.8,7.8,0,0,0-3-.28c-1.55.3-2.76,1.69-4.19,2.28s-3.28.48-4.57,1.34-1.89,2.61-3,3.71-2.85,1.69-3.71,3-.75,3.12-1.35,4.57-2,2.64-2.28,4.18.51,3.15.51,4.74c0,2-.86,3.78-.68,5.47.19,1.89,1.43,3.53,1.71,5.25s-.39,3.69-.18,5.5,1.3,3.46,1.27,5.36c0,1.68-1.14,3.38-1.45,5.32-.26,1.64.31,3.6-.22,5.5-.44,1.61-1.92,3-2.6,4.86l-.08.26-3.3,1.33a12.68,12.68,0,0,0-2.07,1.07A45,45,0,0,0,45.28,90Z" fill="#d90024"/></g></g></svg>