<svg xmlns="http://www.w3.org/2000/svg" viewBox="0 0 90.35 90.35"><g id="bd3766db-3dbb-49bc-8cc1-18df7137bd83" data-name="Layer 2"><g id="f7a06ea0-13ab-4e3f-82e0-e4f8dad51b12" data-name="Capa 1"><circle cx="45.18" cy="45.18" r="45.18" fill="#b5bec9"/><path d="M30.61,72c-3.51,1.27-12.49,4.33-16.39,5.65a45.12,45.12,0,0,0,62.24-.12C72.69,76.21,64.62,73.44,61,72c-3.09-1.22-5.68-3.38-5.79-6.65a12,12,0,0,0,1.59-2l3.21-5a20.45,20.45,0,0,0,3.18-9.14A2.83,2.83,0,0,0,65,47.78a1.63,1.63,0,0,0,.11-.23l2-4.68a3.27,3.27,0,0,0-1.77-4l-.2-.1a2,2,0,0,0-1.82,0V33.14L65,13.9H49.92a2.91,2.91,0,0,1-2.79-2A3.27,3.27,0,0,0,44,9.6H25.48l1.95,23.54v5.65a2,2,0,0,0-1.82,0l-.2.1a3.25,3.25,0,0,0-1.76,4l2,4.68a1,1,0,0,0,.12.23,2.84,2.84,0,0,0,1.78,1.49,20.53,20.53,0,0,0,3.29,9.2l3.3,5A12.39,12.39,0,0,0,36.35,66C35.93,68.91,33.53,70.89,30.61,72Z" fill="#d90024"/></g></g></svg>