<svg xmlns="http://www.w3.org/2000/svg" viewBox="0 0 90.35 90.35"><g id="b8064d28-d258-412d-bda9-b0289fe195f7" data-name="Layer 2"><g id="a4daf8a4-36fb-4f84-8199-4191f7c630c5" data-name="Capa 1"><circle cx="45.18" cy="45.18" r="45.18" fill="#b5bec9"/><path d="M33.59,71.28c-3.81,1.66-15.35,6.28-15.35,6.28A13.61,13.61,0,0,0,15.7,79a45.14,45.14,0,0,0,59.84-.59,14.76,14.76,0,0,0-1.68-.86s-10.65-4.26-14.7-6.16c-2.53-1.18-4.66-3.25-4.87-6.37l1.43-1.63a1.46,1.46,0,0,1,.16-.19,32.35,32.35,0,1,0-19.76,0c.05.06.1.13.16.19l1.71,2c.13.14.25.28.38.41A7.6,7.6,0,0,1,33.59,71.28Z" fill="#d90024"/></g></g></svg>