<svg xmlns="http://www.w3.org/2000/svg" viewBox="0 0 90.35 90.71"><g id="ad6c64a2-bda9-4e08-adfc-bda4c38e35ed" data-name="Layer 2"><g id="aa65907e-075b-481b-a4d2-2bf910660c9f" data-name="Capa 1"><circle cx="45.18" cy="45.53" r="45.18" fill="#b5bec9"/><path d="M33,72.58c-3.81,1.66-15.35,6.28-15.35,6.28a14.7,14.7,0,0,0-1.59.79,45.12,45.12,0,0,0,58.56-.18c-.44-.24-.88-.47-1.35-.67,0,0-10.64-4.26-14.7-6.16-2.53-1.18-4.66-3.25-4.87-6.37l1.43-1.63A29.16,29.16,0,0,0,61.1,53.87a.76.76,0,0,0,.37,0,2.81,2.81,0,0,0,1.81-1.49l.12-.23,2-4.68a3.07,3.07,0,0,0-.5-2.91,24.9,24.9,0,0,0,.67-5.77c0-9.09-4.78-16.91-11.68-20.49a2.44,2.44,0,0,0-.63-4.44,9.14,9.14,0,0,0,1.46-5A9.27,9.27,0,0,0,48.33.11c-1-.06-2-.11-3-.11s-1.76,0-2.62.08a9.25,9.25,0,0,0-5,13.79A2.44,2.44,0,0,0,37,18.31c-6.89,3.58-11.67,11.4-11.67,20.49A25.45,25.45,0,0,0,26,44.57a3.13,3.13,0,0,0-.5,2.91l2,4.68a1.27,1.27,0,0,0,.12.23,2.82,2.82,0,0,0,1.8,1.49.81.81,0,0,0,.38,0,29.16,29.16,0,0,0,5.93,10.77l1.71,2c.13.14.25.28.38.41A7.6,7.6,0,0,1,33,72.58Z" fill="#d90024"/></g></g></svg>