<svg xmlns="http://www.w3.org/2000/svg" viewBox="0 0 90.35 90.35"><g id="b03f1f66-2f46-49aa-a776-d358b91b9174" data-name="Layer 2"><g id="e5268d1d-223b-415d-b69a-1a1303eeee25" data-name="Capa 1"><circle cx="45.18" cy="45.18" r="45.18" fill="#b5bec9"/><path d="M30.8,72c-3.55,1.29-12.71,4.4-16.53,5.69a45.12,45.12,0,0,0,62.24-.2c-3.83-1.31-11.74-4-15.33-5.44-3.09-1.22-5.68-3.38-5.79-6.65a12,12,0,0,0,1.59-2l3.21-5a20.45,20.45,0,0,0,3.18-9.14,2.83,2.83,0,0,0,1.77-1.48l.12-.23,2-4.68a3.27,3.27,0,0,0-1.76-4l-.2-.1a2.07,2.07,0,0,0-1.83,0V36.31H65V28.94c0-5.18-3.12-11.54-7.76-15.21a10.86,10.86,0,0,0-11.79-.94l-.32.17-.32-.17a10.85,10.85,0,0,0-11.78.94c-4.65,3.67-7.77,10-7.77,15.21v7.37h2.34v2.48a2,2,0,0,0-1.82,0l-.2.1a3.26,3.26,0,0,0-1.76,4l2,4.68a1,1,0,0,0,.12.23,2.84,2.84,0,0,0,1.78,1.49A20.53,20.53,0,0,0,31,58.47l3.3,5A12.15,12.15,0,0,0,36.55,66C36.12,68.91,33.72,70.89,30.8,72Z" fill="#d90024"/></g></g></svg>