<svg xmlns="http://www.w3.org/2000/svg" viewBox="0 0 90.35 90.35"><g id="f3c94193-ceda-495f-9980-8d6968eb1f6c" data-name="Layer 2"><g id="b8bedd91-0531-47f1-88a9-5b140d8007ca" data-name="Capa 1"><circle cx="45.18" cy="45.18" r="45.18" fill="#b5bec9"/><path d="M32.16,70.48c-3.82,1.65-15.36,6.28-15.36,6.28a13.59,13.59,0,0,0-2.23,1.18,45.14,45.14,0,0,0,60.87.51,13.75,13.75,0,0,0-3-1.75s-10.65-4.27-14.71-6.17c-2.52-1.18-4.65-3.25-4.86-6.36l1.42-1.64c.16-.18.31-.36.46-.55H65.55V38.5c0-30.71-25.89-27.42-29.79-21.38-5.84-3.49-13.15,1.75-12.48,21.38V62H34.39l.45.55,1.72,2c.12.15.25.28.38.42A7.64,7.64,0,0,1,32.16,70.48Z" fill="#d90024"/></g></g></svg>