<svg xmlns="http://www.w3.org/2000/svg" xmlns:xlink="http://www.w3.org/1999/xlink" viewBox="0 0 90.35 90.35"><defs><clipPath id="fdbab641-f58e-4641-b18b-7e21be5cd401" transform="translate(0.1 -0.35)"><circle cx="45.18" cy="45.18" r="45.18" fill="none"/></clipPath></defs><g id="a7fd1e8e-2be3-4f91-a778-afce0cdf5a7e" data-name="Layer 2"><g id="f844e5a5-10f4-480d-8b32-a8885b27ef25" data-name="Capa 1"><g clip-path="url(#fdbab641-f58e-4641-b18b-7e21be5cd401)"><circle cx="45.18" cy="45.18" r="45.18" fill="#b5bec9"/><path d="M30.79,72.58c-3.61,1.32-13.06,4.53-16.74,5.77a45.13,45.13,0,0,0,62.37-.3c-3.86-1.32-11.68-4-15.24-5.41-3.1-1.22-5.69-3.38-5.8-6.66A11.55,11.55,0,0,0,57,64l3.21-5a20.45,20.45,0,0,0,3.18-9.14,2.86,2.86,0,0,0,1.77-1.48,1.67,1.67,0,0,0,.12-.23l2-4.68a3.26,3.26,0,0,0-1.76-4l-.2-.1a2,2,0,0,0-1.82,0v-.69h12.9a2.1,2.1,0,0,0-2.1-2.1H65V28.22c0-7.44-6.73-13.47-15-13.47H48v-.49a1,1,0,0,0-1-1H44.15a1,1,0,0,0-1,1v.49h-2c-8.29,0-15,6-15,13.48v10.5h1.49v.69a2.07,2.07,0,0,0-1.83,0l-.2.1a3.27,3.27,0,0,0-1.76,4l2,4.68.12.23a2.81,2.81,0,0,0,1.79,1.48A20.43,20.43,0,0,0,31,59.1l3.3,5a11.84,11.84,0,0,0,2.23,2.51C36.11,69.53,33.71,71.52,30.79,72.58Z" transform="translate(0.1 -0.35)" fill="#d90024"/></g></g></g></svg>