<svg xmlns="http://www.w3.org/2000/svg" viewBox="0 0 90.35 90.35"><g id="b4ada067-0fe7-45fe-ade8-a0331f3dd696" data-name="Layer 2"><g id="bfcef638-acdd-4835-8c33-c638fc4a2794" data-name="Capa 1"><circle cx="45.18" cy="45.18" r="45.18" fill="#b5bec9"/><path d="M30.61,72.23c-3.45,1.25-12.18,4.22-16.18,5.58a45.12,45.12,0,0,0,61.82-.12c-3.85-1.31-11.69-4-15.26-5.41-3.09-1.21-5.68-3.37-5.79-6.65a12,12,0,0,0,1.59-2l3.21-5a20.37,20.37,0,0,0,3.18-9.13A2.87,2.87,0,0,0,65,48.05l.11-.22L66,45.62a47.74,47.74,0,0,0,7-1.41l-8.25-7.15L63.68,23.6a6.8,6.8,0,0,0-5.45-6.13l-6.15-1.23a34.26,34.26,0,0,0-13.46,0l-6.15,1.23A6.81,6.81,0,0,0,27,23.6L25.94,37.06,17.7,44.21a47.75,47.75,0,0,0,7,1.41l.94,2.21a1.19,1.19,0,0,0,.12.22,2.84,2.84,0,0,0,1.78,1.49,20.53,20.53,0,0,0,3.29,9.2l3.3,5a12.39,12.39,0,0,0,2.22,2.52C35.93,69.18,33.53,71.16,30.61,72.23Z" fill="#d90024"/></g></g></svg>