<svg xmlns="http://www.w3.org/2000/svg" viewBox="0 0 90.35 90.35"><g id="ea9b752f-0731-4514-8a12-b9daacacad07" data-name="Layer 2"><g id="e856e834-1f9b-408c-9a2e-3ed11ad15182" data-name="Capa 1"><circle cx="45.18" cy="45.18" r="45.18" fill="#b5bec9"/><path d="M54.22,63.88a11.63,11.63,0,0,0,1.59-2l3.21-5a20.37,20.37,0,0,0,3.18-9.13A2.87,2.87,0,0,0,64,46.3a2.26,2.26,0,0,0,.11-.22l2-4.68a3.26,3.26,0,0,0-1.77-4l-.2-.11a2,2,0,0,0-1.43-.16,59.15,59.15,0,0,1,.68-6.56c.84-4.26.43-12.17-3.6-13.14-3.46-.83-2.68-3.37-7.85-3.37-3.06,0-5.28-2.2-7.84-1.89.43.73,1.06,1.79,0,2.15-1.71.61-8.78-3.07-14.87-2.19,3,7.92-2.87,7.76-1.82,10.72,1.17,3.33-2.47,4.38-2.31,7.79.05,1,.52,4.13.89,6.48a2,2,0,0,0-1.38.17l-.2.11a3.24,3.24,0,0,0-1.76,4l2,4.68a1.19,1.19,0,0,0,.12.22,2.84,2.84,0,0,0,1.78,1.49A20.49,20.49,0,0,0,29.85,57l3.3,5a12.39,12.39,0,0,0,2.22,2.52c-.42,2.9-2.82,4.89-5.74,6C26,71.8,16.51,75,12.85,76.26a45.14,45.14,0,0,0,64.48.39c-1.45-.5-12.81-4.34-17.32-6.12C56.92,69.32,54.33,67.16,54.22,63.88Z" fill="#d90024"/></g></g></svg>