<svg xmlns="http://www.w3.org/2000/svg" viewBox="0 0 227.91 227.91"><defs><style>.cls-1{fill:#d6cbb9;}</style></defs><g id="Layer_2" data-name="Layer 2"><g id="Capa_1" data-name="Capa 1"><path class="cls-1" d="M142.28,174.38a9.74,9.74,0,0,0,8.94-13.73c-6.05-13-20.46-22.18-37.26-22.18s-31.22,9.16-37.27,22.18a9.75,9.75,0,0,0,8.94,13.73Z"/><path class="cls-1" d="M34.22,78.47a5.18,5.18,0,0,0,3.42,2.31c14.59,3.79,43.28-1,45.62-19.46.39-3-1.17-10.36-5.5-6.87-4.56,3.68-7.67,8.79-12.38,12.39a24.43,24.43,0,0,1-15.86,5.28c-3.8-.14-7.92-1-11.64.18C34.53,73.34,33,76.27,34.22,78.47Z"/><path class="cls-1" d="M193.69,78.47a5.19,5.19,0,0,1-3.41,2.31c-14.59,3.79-43.28-1-45.63-19.46-.38-3,1.17-10.36,5.5-6.87,4.56,3.68,7.68,8.79,12.38,12.39a24.48,24.48,0,0,0,15.87,5.28c3.8-.14,7.92-1,11.64.18C193.38,73.34,194.91,76.27,193.69,78.47Z"/><path class="cls-1" d="M82,103.32a18,18,0,0,1,4.69,2.42c7.29,5.47-.63,12-5.73,15.21-5.55,3.49-14.54,9.69-21.45,8.35a4,4,0,0,1-2.77-1.63c-2.6-4.55,4.68-6.7,7.63-8,2.18-1,6.48-3.08,6.22-6a3.74,3.74,0,0,0-1.24-2.24c-4.32-4.22-13.61-3-15.31-10a3.09,3.09,0,0,1,.55-2.75,4.18,4.18,0,0,1,2.54-1.15c5.77-1,11.45,1,16.74,3.13C76.48,101.7,79.35,102.34,82,103.32Z"/><path class="cls-1" d="M145.88,103.32a18.14,18.14,0,0,0-4.69,2.42c-7.28,5.47.63,12,5.74,15.21,5.54,3.49,14.53,9.69,21.44,8.35a4,4,0,0,0,2.77-1.63c2.61-4.55-4.68-6.7-7.62-8-2.19-1-6.48-3.08-6.22-6a3.73,3.73,0,0,1,1.23-2.24c4.33-4.22,13.61-3,15.31-10a3.09,3.09,0,0,0-.55-2.75,4.15,4.15,0,0,0-2.53-1.15c-5.77-1-11.46,1-16.74,3.13C151.44,101.7,148.57,102.34,145.88,103.32Z"/><path class="cls-1" d="M114,227.91A114,114,0,1,1,227.91,114,114.08,114.08,0,0,1,114,227.91ZM114,6A108,108,0,1,0,222,114,108.12,108.12,0,0,0,114,6Z"/></g></g></svg>