<svg xmlns="http://www.w3.org/2000/svg" viewBox="0 0 224.47 224.47"><defs><style>.cls-1{fill:#d6cbb9;}</style></defs><g id="Layer_2" data-name="Layer 2"><g id="Capa_1" data-name="Capa 1"><path class="cls-1" d="M42,70.37a4.53,4.53,0,0,0,3,2c12.78,3.32,37.93-.92,40-17,.34-2.64-1-9.08-4.82-6-4,3.22-6.72,7.7-10.85,10.85a21.35,21.35,0,0,1-13.9,4.63c-3.33-.12-6.94-.85-10.2.16C42.28,65.87,40.94,68.44,42,70.37Z"/><path class="cls-1" d="M181.76,70.37a4.58,4.58,0,0,1-3,2c-12.78,3.32-37.93-.92-40-17-.34-2.64,1-9.08,4.82-6,4,3.22,6.73,7.7,10.85,10.85a21.39,21.39,0,0,0,13.9,4.63c3.33-.12,6.94-.85,10.2.16C181.48,65.87,182.82,68.44,181.76,70.37Z"/><path class="cls-1" d="M79.11,89.73c2.77.39,5.27,1.85,7.68,3.28,3.15,1.86,6.43,3.85,8.35,7,.88,1.44,1.39,3.42.33,4.73a4.34,4.34,0,0,1-3,1.28c-7.72.73-15.29-4.78-22.84-3-3.25.75-20.25,9.26-15.29-.65C57.76,95.39,71.87,88.7,79.11,89.73Z"/><path class="cls-1" d="M144.66,89.73c-2.78.39-5.27,1.85-7.69,3.28-3.15,1.86-6.43,3.85-8.35,7-.88,1.44-1.39,3.42-.33,4.73a4.34,4.34,0,0,0,3.05,1.28c7.71.73,15.28-4.78,22.83-3,3.25.75,20.25,9.26,15.3-.65C166,95.39,151.89,88.7,144.66,89.73Z"/><path class="cls-1" d="M74,164.13c-.71-15.1,12.8-26.06,23.83-34,5-3.61,10.16-8.35,16.54-9.27,7.2-1,13.07,4.2,17.53,9.17a130.46,130.46,0,0,1,12.56,16.4c3.93,6.08,7.38,13.84,4.09,20.28-2.55,5-8.51,7.42-14.11,7.54s-11-1.61-16.49-2.92a36.56,36.56,0,0,0-12.94-1,24.6,24.6,0,0,0-6.4,1.69c-2.1.88-3.94,2.18-6.09,3a16.2,16.2,0,0,1-11.73-.13,11.06,11.06,0,0,1-6.65-9C74,165.23,74,164.68,74,164.13Z"/><path class="cls-1" d="M177.09,128.31c.56,3.46,2.13,7.43,5,9.6a6.45,6.45,0,0,0,8.51-.83c3.37-3.53,2.07-9.19.49-13.22-1.91-4.89-5.45-9.83-10.4-12a10.91,10.91,0,0,0-7.61-.49c-2.22.68-1,2.77-.15,4.11a28.35,28.35,0,0,1,3.26,7.71C176.62,124.88,176.82,126.61,177.09,128.31Z"/><path class="cls-1" d="M47.38,128.31c-.56,3.46-2.13,7.43-5,9.6a6.45,6.45,0,0,1-8.51-.83c-3.37-3.53-2.07-9.19-.49-13.22,1.91-4.89,5.45-9.83,10.4-12a10.91,10.91,0,0,1,7.61-.49c2.22.68,1,2.77.15,4.11a28.35,28.35,0,0,0-3.26,7.71C47.85,124.88,47.65,126.61,47.38,128.31Z"/><path class="cls-1" d="M112.23,224.47A112.24,112.24,0,1,1,224.47,112.23,112.36,112.36,0,0,1,112.23,224.47Zm0-218.6A106.36,106.36,0,1,0,218.6,112.23,106.49,106.49,0,0,0,112.23,5.87Z"/></g></g></svg>