<svg xmlns="http://www.w3.org/2000/svg" viewBox="0 0 227.17 226.84"><defs><style>.cls-1{fill:#d6cbb9;}</style></defs><g id="Layer_2" data-name="Layer 2"><g id="Capa_1" data-name="Capa 1"><path class="cls-1" d="M157.1,122.49A8.14,8.14,0,0,1,165,132.6c-5.2,21-26.24,36.71-51.4,36.71S67.38,153.6,62.18,132.6a8.14,8.14,0,0,1,7.89-10.11Z"/><path class="cls-1" d="M73.82,77.08c2.71,4.6,4,11.21,0,14.71-3.3,2.86-8.27,2-12.62,1.51a53.89,53.89,0,0,0-31.95,6.36,6.53,6.53,0,0,1-2,.84,3.64,3.64,0,0,1-3.65-1.85c-1.34-2.31-.12-5.42,2-7.07s4.84-2.21,7.47-2.71c11.06-2.14,22.56-4.27,33.5-1.55a3.24,3.24,0,0,0,1.6.13c1.75-.48,1.29-3.13.25-4.61-3.64-5.2-9.55-8.4-15.59-10.37C47.88,70.86,34,70.55,30.91,66.19c-4-5.75,7.71-8.88,11.79-8.65C54.15,58.18,68.13,67.44,73.82,77.08Z"/><path class="cls-1" d="M153.35,77.08c-2.71,4.6-4,11.21,0,14.71,3.3,2.86,8.27,2,12.62,1.51a53.89,53.89,0,0,1,31.95,6.36,6.53,6.53,0,0,0,2,.84,3.64,3.64,0,0,0,3.65-1.85c1.34-2.31.12-5.42-2-7.07s-4.84-2.21-7.47-2.71c-11.06-2.14-22.56-4.27-33.5-1.55a3.24,3.24,0,0,1-1.6.13c-1.75-.48-1.29-3.13-.25-4.61,3.64-5.2,9.55-8.4,15.59-10.37,4.95-1.61,18.85-1.92,21.92-6.28,4.05-5.75-7.71-8.88-11.79-8.65C173,58.18,159,67.44,153.35,77.08Z"/><path class="cls-1" d="M113.59,226.84C51,226.84,0,176,0,113.42S51,0,113.59,0,227.17,50.88,227.17,113.42,176.22,226.84,113.59,226.84Zm0-220.9C54.23,5.94,6,54.15,6,113.42S54.23,220.9,113.59,220.9s107.64-48.22,107.64-107.48S172.94,5.94,113.59,5.94Z"/></g></g></svg>