<?xml version="1.0" encoding="utf-8"?>
<!-- Generator: Adobe Illustrator 24.0.1, SVG Export Plug-In . SVG Version: 6.00 Build 0)  -->
<svg version="1.1" id="Capa_1" xmlns="http://www.w3.org/2000/svg" xmlns:xlink="http://www.w3.org/1999/xlink" x="0px" y="0px"
	 viewBox="0 0 200.01 42.83" style="enable-background:new 0 0 200.01 42.83;" xml:space="preserve">
<style type="text/css">
	.st0{fill:#F9F9F9;}
	.st1{fill:none;stroke:#CECECE;stroke-miterlimit:10;}
	.st2{fill:#D90024;}
	.st3{fill:#FFFFFF;}
	.st4{fill:#D6CBB9;}
	.st5{fill:none;stroke:#FFFFFF;stroke-width:2;stroke-miterlimit:10;}
	.st6{clip-path:url(#SVGID_2_);}
	.st7{clip-path:url(#SVGID_4_);}
	.st8{clip-path:url(#SVGID_6_);}
	.st9{clip-path:url(#SVGID_8_);}
	.st10{fill:none;stroke:#D6CBB9;stroke-width:2;stroke-miterlimit:10;}
	.st11{clip-path:url(#SVGID_10_);}
	.st12{fill:#AAAAAA;}
	.st13{fill:#FFD685;}
	.st14{fill:none;stroke:#FFD685;stroke-width:2;stroke-linecap:round;stroke-linejoin:round;stroke-miterlimit:10;}
	.st15{clip-path:url(#SVGID_12_);}
	.st16{fill:#727272;}
	.st17{fill:none;stroke:#D6CBB9;stroke-miterlimit:10;}
	.st18{clip-path:url(#SVGID_14_);}
	.st19{fill:#88BDDA;}
	.st20{fill:#E8E8E8;}
	.st21{fill:#F2F7FB;}
	.st22{fill:#FFFFFF;stroke:#D1D1D1;stroke-miterlimit:10;}
	.st23{fill:none;stroke:#828282;stroke-width:1.5932;stroke-linecap:round;stroke-linejoin:round;stroke-miterlimit:10;}
	.st24{fill:#4FA9ED;}
	.st25{fill:#CFCFCF;}
	.st26{fill:#F8F8F8;stroke:#CFCFCF;stroke-width:0.3331;stroke-miterlimit:10;}
	.st27{fill:#B4B6B9;}
	.st28{fill:#3791FF;}
	.st29{fill:#1432B9;}
	.st30{fill:#8C9196;}
	.st31{fill:#FFFFFF;stroke:#CFCFCF;stroke-width:1.5543;stroke-miterlimit:10;}
	.st32{fill:#2387F5;}
	.st33{fill:#071EA0;}
	.st34{fill:#EFEFEF;}
	.st35{clip-path:url(#SVGID_16_);fill:#B5BEC9;}
	.st36{clip-path:url(#SVGID_16_);fill:#D90024;}
	.st37{clip-path:url(#SVGID_18_);fill:#B5BEC9;}
	.st38{clip-path:url(#SVGID_18_);fill:#D90024;}
	.st39{clip-path:url(#SVGID_20_);fill:#B5BEC9;}
	.st40{clip-path:url(#SVGID_20_);fill:#D90024;}
	.st41{clip-path:url(#SVGID_22_);fill:#B5BEC9;}
	.st42{clip-path:url(#SVGID_22_);fill:#D90024;}
	.st43{clip-path:url(#SVGID_24_);fill:#B5BEC9;}
	.st44{clip-path:url(#SVGID_24_);fill:#D90024;}
	.st45{clip-path:url(#SVGID_26_);fill:#B5BEC9;}
	.st46{clip-path:url(#SVGID_26_);fill:#D90024;}
	.st47{clip-path:url(#SVGID_28_);fill:#B5BEC9;}
	.st48{clip-path:url(#SVGID_28_);fill:#D90024;}
	.st49{clip-path:url(#SVGID_30_);fill:#B5BEC9;}
	.st50{clip-path:url(#SVGID_30_);fill:#D90024;}
	.st51{clip-path:url(#SVGID_32_);fill:#B5BEC9;}
	.st52{clip-path:url(#SVGID_32_);fill:#D90024;}
	.st53{clip-path:url(#SVGID_34_);fill:#B5BEC9;}
	.st54{clip-path:url(#SVGID_34_);fill:#D90024;}
	.st55{clip-path:url(#SVGID_36_);fill:#B5BEC9;}
	.st56{clip-path:url(#SVGID_36_);fill:#D90024;}
	.st57{clip-path:url(#SVGID_38_);fill:#B5BEC9;}
	.st58{clip-path:url(#SVGID_38_);fill:#D90024;}
	.st59{fill:#666666;}
	.st60{fill:#5B5B5B;}
	.st61{clip-path:url(#SVGID_40_);fill:#B5BEC9;}
	.st62{clip-path:url(#SVGID_40_);fill:#D90024;}
	.st63{clip-path:url(#SVGID_42_);}
	.st64{fill:none;stroke:#D8D8D8;stroke-miterlimit:10;}
	.st65{fill:#848484;}
	.st66{fill:none;stroke:#E0E0E0;stroke-miterlimit:10;}
	.st67{clip-path:url(#SVGID_44_);fill:#FF8EA4;}
	.st68{clip-path:url(#SVGID_44_);}
	.st69{fill:#3A1E0B;}
	.st70{fill:#C68458;}
	.st71{fill:#BF53D3;}
	.st72{fill:#A56A42;}
	.st73{fill:#332113;}
	.st74{fill:#FFFFFF;stroke:#EF9595;stroke-width:1.3835;stroke-miterlimit:10;}
	.st75{fill:#D6725F;}
	.st76{fill:url(#SVGID_45_);}
	.st77{clip-path:url(#SVGID_47_);fill:#B5BEC9;}
	.st78{clip-path:url(#SVGID_47_);}
	.st79{clip-path:url(#SVGID_49_);}
	.st80{clip-path:url(#SVGID_51_);}
	.st81{fill:#BCBCBC;}
	.st82{fill:#CECECE;}
	.st83{fill:#E2E2E2;}
	.st84{clip-path:url(#SVGID_53_);fill:#B5BEC9;}
	.st85{clip-path:url(#SVGID_53_);}
	.st86{clip-path:url(#SVGID_55_);fill:#B5BEC9;}
	.st87{clip-path:url(#SVGID_55_);}
	.st88{clip-path:url(#SVGID_57_);fill:#B5BEC9;}
	.st89{clip-path:url(#SVGID_57_);}
	.st90{clip-path:url(#SVGID_59_);fill:#B5BEC9;}
	.st91{clip-path:url(#SVGID_59_);}
	.st92{clip-path:url(#SVGID_61_);}
	.st93{clip-path:url(#SVGID_63_);fill:#B5BEC9;}
	.st94{clip-path:url(#SVGID_63_);}
	.st95{clip-path:url(#SVGID_65_);fill:#B5BEC9;}
	.st96{clip-path:url(#SVGID_65_);}
	.st97{clip-path:url(#SVGID_67_);}
	.st98{clip-path:url(#SVGID_69_);}
	.st99{clip-path:url(#SVGID_71_);fill:#B5BEC9;}
	.st100{clip-path:url(#SVGID_71_);}
	.st101{clip-path:url(#SVGID_73_);fill:#B5BEC9;}
	.st102{clip-path:url(#SVGID_73_);}
	.st103{clip-path:url(#SVGID_75_);fill:#B5BEC9;}
	.st104{clip-path:url(#SVGID_75_);}
	.st105{clip-path:url(#SVGID_77_);fill:#B5BEC9;}
	.st106{clip-path:url(#SVGID_77_);}
	.st107{clip-path:url(#SVGID_79_);fill:#B5BEC9;}
	.st108{clip-path:url(#SVGID_79_);}
	.st109{clip-path:url(#SVGID_81_);fill:#B5BEC9;}
	.st110{clip-path:url(#SVGID_81_);}
	.st111{clip-path:url(#SVGID_83_);fill:#B5BEC9;}
	.st112{clip-path:url(#SVGID_83_);}
	.st113{clip-path:url(#SVGID_85_);fill:#B5BEC9;}
	.st114{clip-path:url(#SVGID_85_);}
	.st115{clip-path:url(#SVGID_87_);fill:#B5BEC9;}
	.st116{clip-path:url(#SVGID_87_);}
	.st117{clip-path:url(#SVGID_89_);fill:#B5BEC9;}
	.st118{clip-path:url(#SVGID_89_);}
	.st119{clip-path:url(#SVGID_91_);fill:#B5BEC9;}
	.st120{clip-path:url(#SVGID_91_);}
	.st121{fill:#7C7C7C;}
	.st122{fill:none;stroke:#4FA9ED;stroke-width:5;stroke-linecap:round;stroke-linejoin:round;stroke-miterlimit:10;}
	.st123{clip-path:url(#SVGID_105_);}
	.st124{fill:#4562CC;}
	.st125{fill:#71D77C;}
	.st126{fill:#FFA788;}
	.st127{fill:#4CC3A2;}
	.st128{fill:#DCDFE2;}
	.st129{fill:#28A394;}
	.st130{fill:#AD6BDD;}
	.st131{fill:#FF9100;}
	.st132{fill:#F9DAC5;}
	.st133{fill:url(#SVGID_112_);}
	.st134{fill:#1DACBC;}
	.st135{fill:#F2BC9E;}
	.st136{fill:url(#SVGID_113_);}
	.st137{fill:#FFFFFF;stroke:#D6925F;stroke-width:1.9275;stroke-miterlimit:10;}
	.st138{fill:#EFAB84;}
	.st139{fill:#F7D9B5;}
	.st140{fill:#EFBC8B;}
	.st141{fill:#5B77AA;}
	.st142{fill:#3B4443;}
	.st143{fill:url(#SVGID_114_);}
	.st144{fill:url(#SVGID_115_);}
	.st145{fill:#9DADCC;}
	.st146{fill:url(#SVGID_116_);}
	.st147{fill:#86B3B5;}
	.st148{fill:#E5B295;}
	.st149{fill:#F2B78B;}
	.st150{fill:#843B13;}
	.st151{fill:#C62916;}
	.st152{fill:none;stroke:#9E5E32;stroke-width:1.7777;stroke-linecap:round;stroke-linejoin:round;stroke-miterlimit:10;}
	.st153{fill:url(#SVGID_117_);}
	.st154{fill:none;stroke:#CCCCCC;stroke-miterlimit:10;}
	.st155{fill:none;stroke:#CCCCCC;stroke-width:2;stroke-miterlimit:10;}
	.st156{fill:#CCCCCC;}
	.st157{fill:url(#SVGID_118_);}
	.st158{fill:#CCE5F2;}
	.st159{fill:#D39E7A;}
	.st160{fill:#FFFFFF;stroke:#C44A06;stroke-width:1.3835;stroke-miterlimit:10;}
	.st161{fill:#E0916E;}
	.st162{fill:url(#SVGID_119_);}
	.st163{fill:url(#SVGID_120_);}
	.st164{fill:none;stroke:#D6925F;stroke-width:1.3835;stroke-linecap:round;stroke-linejoin:round;stroke-miterlimit:10;}
	.st165{fill:url(#SVGID_121_);}
	.st166{fill:#B32E1B;}
	.st167{fill:#FFB1A9;}
	.st168{fill:#6B2405;}
	.st169{fill:#D8AA8B;}
	.st170{fill:#C1977A;}
	.st171{fill:#FFFFFF;stroke:#C44A06;stroke-width:1.9275;stroke-miterlimit:10;}
	.st172{fill:#D68572;}
	.st173{fill:url(#SVGID_122_);}
	.st174{fill:#47CBD0;}
	.st175{fill:url(#SVGID_123_);}
	.st176{fill:#F9D5B4;}
	.st177{fill:#7796F7;}
	.st178{fill:#D19452;}
	.st179{fill:none;stroke:#D6925F;stroke-width:1.7777;stroke-linecap:round;stroke-linejoin:round;stroke-miterlimit:10;}
	.st180{fill:url(#SVGID_124_);}
	.st181{fill:#717A33;}
	.st182{fill:url(#SVGID_125_);}
	.st183{fill:#565656;}
	.st184{fill:#94642F;}
	.st185{fill:#4D5900;}
	.st186{fill:#EAEAEA;}
	.st187{fill:#BFD8E3;}
	.st188{fill:#86907A;}
	.st189{fill:url(#SVGID_126_);}
	.st190{fill:url(#SVGID_127_);}
	.st191{fill:url(#SVGID_128_);}
	.st192{fill:url(#SVGID_129_);}
	.st193{fill:url(#SVGID_130_);}
	.st194{fill:#F47DA8;}
	.st195{fill:url(#SVGID_131_);}
	.st196{fill:#4B4D4F;}
	.st197{fill:none;}
	.st198{fill:none;stroke:#4B4D4F;stroke-miterlimit:10;}
	.st199{fill:#57A5D6;}
	.st200{fill:none;stroke:#4562CC;stroke-width:3;stroke-linecap:round;stroke-linejoin:round;stroke-miterlimit:10;}
	.st201{clip-path:url(#SVGID_133_);fill:#B5BEC9;}
	.st202{clip-path:url(#SVGID_133_);fill:#122034;}
	.st203{clip-path:url(#SVGID_135_);fill:#B5BEC9;}
	.st204{clip-path:url(#SVGID_135_);fill:#122034;}
	.st205{clip-path:url(#SVGID_137_);fill:#B5BEC9;}
	.st206{clip-path:url(#SVGID_137_);fill:#122034;}
	.st207{clip-path:url(#SVGID_139_);fill:#B5BEC9;}
	.st208{clip-path:url(#SVGID_139_);fill:#122034;}
	.st209{fill:#FBD650;}
	.st210{fill:#FBC000;}
	.st211{fill:#FBC100;}
	.st212{fill:#ED7700;}
	.st213{fill:#558AA5;}
	.st214{fill:#548AA4;}
	.st215{fill:#8DAF3A;}
	.st216{fill:#F2D6CE;}
	.st217{fill:#9C9B9B;}
	.st218{fill:#9B9A9B;}
	.st219{fill:#A8D9E3;}
	.st220{fill:#8DAF3B;}
	.st221{fill:#FBD64F;}
	.st222{fill:#B5DCEA;}
	.st223{fill:#F9F9F9;stroke:#D1D1D1;stroke-miterlimit:10;}
	.st224{fill:none;stroke:#4FA9ED;stroke-width:8.2128;stroke-linecap:round;stroke-linejoin:round;stroke-miterlimit:10;}
	.st225{clip-path:url(#SVGID_141_);}
	.st226{clip-path:url(#SVGID_143_);}
	.st227{fill:none;stroke:#FFA788;stroke-width:2;stroke-miterlimit:10;}
	.st228{fill:none;stroke:#FFD685;stroke-width:0.75;stroke-linecap:round;stroke-linejoin:round;stroke-miterlimit:10;}
	.st229{fill:none;stroke:#71D77C;stroke-linecap:round;stroke-linejoin:round;stroke-miterlimit:10;}
	.st230{fill-rule:evenodd;clip-rule:evenodd;fill:#4562CC;}
	.st231{fill:#353535;}
	.st232{clip-path:url(#SVGID_145_);}
	.st233{clip-path:url(#SVGID_145_);fill:url(#SVGID_146_);}
	.st234{opacity:0.87;}
	.st235{fill:none;stroke:#D1D1D1;stroke-width:1.4029;stroke-linecap:round;stroke-linejoin:round;stroke-miterlimit:10;}
	.st236{fill:none;stroke:#4FA9ED;stroke-width:2;stroke-miterlimit:10;}
	.st237{fill:#FFFFFF;stroke:#E8E8E8;stroke-width:1.1404;stroke-miterlimit:10;}
	.st238{clip-path:url(#SVGID_148_);}
	.st239{fill:#E26A84;}
	.st240{fill:#D3264B;}
	.st241{fill:#757575;}
	.st242{fill:#6B9DBF;}
	.st243{clip-path:url(#SVGID_150_);}
	.st244{clip-path:url(#SVGID_152_);}
	.st245{clip-path:url(#SVGID_152_);fill:url(#SVGID_153_);}
	.st246{fill:none;stroke:#E26A84;stroke-width:3;stroke-miterlimit:10;}
	.st247{clip-path:url(#SVGID_155_);}
	.st248{fill:none;stroke:#919191;stroke-width:1.3329;stroke-miterlimit:10;}
	.st249{fill:#F4F4F4;}
	.st250{fill:#9F9F9F;}
	.st251{clip-path:url(#SVGID_157_);}
	.st252{clip-path:url(#SVGID_159_);}
	.st253{clip-path:url(#SVGID_161_);}
	.st254{fill:none;stroke:#FFFFFF;stroke-width:3;stroke-linecap:round;stroke-linejoin:round;stroke-miterlimit:10;}
	.st255{fill:none;stroke:#FFFFFF;stroke-width:0.6481;stroke-linecap:round;stroke-linejoin:round;stroke-miterlimit:10;}
	.st256{clip-path:url(#SVGID_163_);}
	.st257{clip-path:url(#SVGID_165_);}
	.st258{clip-path:url(#SVGID_167_);}
</style>
<g>
	<path class="st2" d="M43.16,16.42H4.01C1.81,16.42,0,18.22,0,20.43s1.81,4.01,4.01,4.01h10.25l-7.55,7.55
		c-1.25,1.25-1.25,3.3,0,4.56l1.12,1.12c1.25,1.25,3.3,1.25,4.56,0l7.86-7.86v9.8c0,1.77,1.45,3.22,3.22,3.22h1.58
		c1.77,0,3.22-1.45,3.22-3.22v-9.8l7.86,7.86c1.25,1.25,3.3,1.25,4.56,0l1.12-1.12c1.25-1.25,1.25-3.3,0-4.56l-7.55-7.55h8.88
		c2.21,0,4.01-1.81,4.01-4.01S45.37,16.42,43.16,16.42z"/>
	<g>
		<path class="st16" d="M11.96,3.97c0,0.62-0.09,1.17-0.28,1.64c-0.18,0.47-0.43,0.87-0.73,1.19c-0.3,0.32-0.66,0.56-1.05,0.72
			C9.5,7.69,9.09,7.77,8.66,7.77H6.68v6H5.37V0.32h3.17c0.39,0,0.79,0.06,1.2,0.17c0.41,0.11,0.77,0.31,1.1,0.6
			c0.33,0.29,0.6,0.66,0.81,1.13C11.86,2.69,11.96,3.27,11.96,3.97z M10.65,3.98c0-0.44-0.06-0.82-0.17-1.14
			C10.37,2.51,10.21,2.25,10,2.05C9.8,1.85,9.57,1.7,9.31,1.6C9.05,1.51,8.77,1.46,8.47,1.46H6.68v5.17h1.8
			c0.59,0,1.1-0.22,1.53-0.65C10.44,5.54,10.65,4.88,10.65,3.98z"/>
		<path class="st16" d="M28.3,3.97c0,0.62-0.09,1.17-0.28,1.64c-0.18,0.47-0.43,0.87-0.73,1.19c-0.3,0.32-0.66,0.56-1.05,0.72
			c-0.4,0.16-0.81,0.25-1.24,0.25h-1.98v6H21.7V0.32h3.17c0.39,0,0.79,0.06,1.2,0.17c0.41,0.11,0.77,0.31,1.1,0.6
			c0.33,0.29,0.6,0.66,0.81,1.13C28.19,2.69,28.3,3.27,28.3,3.97z M26.98,3.98c0-0.44-0.06-0.82-0.17-1.14
			c-0.11-0.32-0.27-0.58-0.47-0.79c-0.2-0.2-0.43-0.35-0.69-0.44c-0.26-0.09-0.54-0.14-0.85-0.14h-1.79v5.17h1.8
			c0.59,0,1.1-0.22,1.53-0.65C26.77,5.54,26.98,4.88,26.98,3.98z"/>
		<path class="st16" d="M43.91,13.62c-0.54,0.32-1.16,0.47-1.84,0.47c-0.73,0-1.39-0.18-1.96-0.54c-0.57-0.36-1.05-0.85-1.44-1.48
			c-0.39-0.63-0.69-1.37-0.9-2.23c-0.21-0.86-0.31-1.79-0.31-2.79c0-1.01,0.1-1.95,0.31-2.81c0.21-0.86,0.51-1.61,0.91-2.23
			c0.4-0.63,0.88-1.12,1.45-1.47C40.7,0.18,41.34,0,42.06,0c0.63,0,1.23,0.13,1.78,0.4c0.55,0.27,1.01,0.68,1.38,1.25l-0.85,0.87
			c-0.29-0.44-0.63-0.77-1.02-0.99c-0.39-0.22-0.79-0.32-1.23-0.32c-0.56,0-1.04,0.15-1.45,0.46c-0.41,0.3-0.75,0.72-1.03,1.25
			c-0.27,0.53-0.47,1.15-0.61,1.86c-0.13,0.71-0.2,1.46-0.2,2.26c0,0.8,0.07,1.55,0.21,2.25c0.14,0.7,0.35,1.32,0.62,1.85
			c0.27,0.53,0.61,0.95,1.03,1.26c0.41,0.31,0.9,0.47,1.45,0.47c0.48,0,0.92-0.14,1.31-0.41c0.39-0.27,0.72-0.63,0.97-1.07
			l0.84,0.85C44.9,12.85,44.45,13.3,43.91,13.62z"/>
	</g>
	<g>
		<path class="st16" d="M65.64,12.54h2.54c2.29,0,3.66,1.01,3.66,3.83c0,2.7-1.35,4-3.6,4h-1.9v5.91h-0.7V12.54z M68.06,19.57
			c2.06,0,3.05-0.93,3.05-3.2c0-2.3-1.02-3.02-3.11-3.02h-1.66v6.22H68.06z"/>
		<path class="st16" d="M74.06,12.54h2.54c2.29,0,3.66,1.01,3.66,3.83c0,2.7-1.35,4-3.6,4h-1.9v5.91h-0.7V12.54z M76.48,19.57
			c2.06,0,3.05-0.93,3.05-3.2c0-2.3-1.02-3.02-3.11-3.02h-1.66v6.22H76.48z"/>
		<path class="st16" d="M81.83,19.39c0-4.36,1.75-7.1,4.32-7.1c1.18,0,2.09,0.8,2.63,1.64l-0.41,0.64
			c-0.55-0.85-1.28-1.41-2.21-1.41c-2.21,0-3.58,2.4-3.58,6.21c0,3.82,1.36,6.29,3.53,6.29c1.04,0,1.82-0.58,2.55-1.69l0.41,0.6
			c-0.77,1.22-1.69,1.96-3,1.96C83.56,26.54,81.83,23.76,81.83,19.39z"/>
		<path class="st16" d="M94.19,12.54h5.51v0.83h-4.8v5.48h4.06v0.83H94.9v6.62h-0.7V12.54z"/>
		<path class="st16" d="M100.71,19.37c0-4.35,1.73-7.08,4.16-7.08c2.43,0,4.16,2.73,4.16,7.08c0,4.35-1.73,7.17-4.16,7.17
			C102.44,26.54,100.71,23.72,100.71,19.37z M108.29,19.37c0-3.81-1.37-6.21-3.42-6.21c-2.05,0-3.42,2.39-3.42,6.21
			s1.37,6.3,3.42,6.3C106.92,25.67,108.29,23.19,108.29,19.37z"/>
		<path class="st16" d="M111.36,12.54h2.89c2.01,0,3.32,1,3.32,3.63c0,2.51-1.32,3.8-3.32,3.8h-2.18v6.31h-0.7V12.54z M114.06,19.17
			c1.79,0,2.78-0.96,2.78-3c0-2.07-0.99-2.82-2.78-2.82h-2v5.82H114.06z M114.09,19.7l0.67-0.28l3,6.87h-0.82L114.09,19.7z"/>
		<path class="st16" d="M119.7,12.54h1l2.11,8.06c0.27,1.01,0.53,2.04,0.8,3.05h0.06c0.27-1.02,0.5-2.04,0.77-3.05l2.1-8.06h1v13.75
			h-0.68v-9.04c0-1.11,0.05-2.56,0.09-3.71h-0.06l-0.79,3.07l-2.18,8.18h-0.61l-2.19-8.18l-0.8-3.07h-0.06
			c0.04,1.15,0.09,2.6,0.09,3.71v9.04h-0.65V12.54z"/>
		<path class="st16" d="M132.72,12.54h0.71l3.56,13.75h-0.75l-2.02-8.09c-0.41-1.63-0.77-3.07-1.12-4.75h-0.06
			c-0.35,1.68-0.71,3.12-1.12,4.75l-2.05,8.09h-0.71L132.72,12.54z M130.78,20.77h4.53v0.8h-4.53V20.77z"/>
		<path class="st16" d="M137.79,19.39c0-4.36,1.75-7.1,4.32-7.1c1.18,0,2.09,0.8,2.63,1.64l-0.41,0.64
			c-0.55-0.85-1.28-1.41-2.21-1.41c-2.21,0-3.58,2.4-3.58,6.21c0,3.82,1.36,6.29,3.53,6.29c1.04,0,1.82-0.58,2.55-1.69l0.41,0.6
			c-0.77,1.22-1.69,1.96-3,1.96C139.53,26.54,137.79,23.76,137.79,19.39z"/>
		<path class="st16" d="M147.09,12.54h0.7v13.75h-0.7V12.54z"/>
		<path class="st16" d="M150.12,19.37c0-4.35,1.73-7.08,4.16-7.08s4.16,2.73,4.16,7.08c0,4.35-1.73,7.17-4.16,7.17
			S150.12,23.72,150.12,19.37z M157.7,19.37c0-3.81-1.37-6.21-3.42-6.21c-2.05,0-3.42,2.39-3.42,6.21s1.37,6.3,3.42,6.3
			C156.33,25.67,157.7,23.19,157.7,19.37z M153.66,11.08l1.91-2.55l0.44,0.68l-2.04,2.35L153.66,11.08z"/>
		<path class="st16" d="M160.77,12.54h0.74l4.25,9.69l1.14,2.75h0.06c-0.04-1.35-0.09-2.68-0.09-4.01v-8.43h0.67v13.75h-0.74
			l-4.25-9.69l-1.14-2.74h-0.06c0.04,1.32,0.09,2.57,0.09,3.9v8.54h-0.67V12.54z"/>
		<path class="st16" d="M170.07,25.61c0-0.61,0.31-0.97,0.65-0.97c0.34,0,0.65,0.36,0.65,0.97c0,0.57-0.31,0.93-0.65,0.93
			C170.38,26.54,170.07,26.18,170.07,25.61z"/>
		<path class="st16" d="M173.23,19.39c0-4.36,1.75-7.1,4.32-7.1c1.18,0,2.09,0.8,2.63,1.64l-0.41,0.64
			c-0.55-0.85-1.28-1.41-2.21-1.41c-2.21,0-3.58,2.4-3.58,6.21c0,3.82,1.36,6.29,3.53,6.29c1.04,0,1.82-0.58,2.55-1.69l0.41,0.6
			c-0.77,1.22-1.69,1.96-3,1.96C174.97,26.54,173.23,23.76,173.23,19.39z"/>
		<path class="st16" d="M181.52,19.37c0-4.35,1.73-7.08,4.16-7.08s4.16,2.73,4.16,7.08c0,4.35-1.73,7.17-4.16,7.17
			S181.52,23.72,181.52,19.37z M189.1,19.37c0-3.81-1.37-6.21-3.42-6.21c-2.05,0-3.42,2.39-3.42,6.21s1.37,6.3,3.42,6.3
			C187.73,25.67,189.1,23.19,189.1,19.37z"/>
		<path class="st16" d="M192.17,12.54h1l2.11,8.06c0.27,1.01,0.53,2.04,0.8,3.05h0.06c0.27-1.02,0.5-2.04,0.77-3.05l2.1-8.06h1
			v13.75h-0.68v-9.04c0-1.11,0.05-2.56,0.09-3.71h-0.06l-0.79,3.07l-2.18,8.18h-0.61l-2.19-8.18l-0.8-3.07h-0.06
			c0.04,1.15,0.09,2.6,0.09,3.71v9.04h-0.65V12.54z"/>
	</g>
</g>
</svg>
