<?xml version="1.0" encoding="utf-8"?>
<!-- Generator: Adobe Illustrator 24.0.1, SVG Export Plug-In . SVG Version: 6.00 Build 0)  -->
<svg version="1.1" id="Capa_1" xmlns="http://www.w3.org/2000/svg" xmlns:xlink="http://www.w3.org/1999/xlink" x="0px" y="0px"
	 viewBox="0 0 200.01 42.83" style="enable-background:new 0 0 200.01 42.83;" xml:space="preserve">
<style type="text/css">
	.st0{fill:#FFFFFF;}
	.st1{fill:#D6CBB9;}
	.st2{fill:none;stroke:#FFFFFF;stroke-width:2;stroke-miterlimit:10;}
	.st3{fill:#D90024;}
	.st4{fill:none;stroke:#FFFFFF;stroke-width:3;stroke-linecap:round;stroke-linejoin:round;stroke-miterlimit:10;}
	.st5{fill:none;stroke:#FFFFFF;stroke-width:0.6481;stroke-linecap:round;stroke-linejoin:round;stroke-miterlimit:10;}
	.st6{fill:#F9F9F9;}
	.st7{fill:#E8E8E8;}
	.st8{fill:none;stroke:#FBDD65;stroke-width:2;stroke-miterlimit:10;}
	.st9{fill:#FBDD65;}
	.st10{fill:none;stroke:#4CC3A2;stroke-width:3;stroke-linecap:round;stroke-linejoin:round;stroke-miterlimit:10;}
	.st11{clip-path:url(#SVGID_2_);}
	.st12{fill:#727272;}
	.st13{fill:none;stroke:#D6CBB9;stroke-width:2;stroke-miterlimit:10;}
	.st14{fill:#D3264B;}
	.st15{fill:#757575;}
	.st16{fill:#6B9DBF;}
	.st17{fill:#88BDDA;}
	.st18{fill:#F2F7FB;stroke:#C4C4C4;stroke-linecap:round;stroke-linejoin:round;stroke-miterlimit:10;stroke-dasharray:12;}
	.st19{fill:#C6C6C6;}
	.st20{opacity:0.31;fill:#494949;}
	.st21{fill:none;stroke:#88BDDA;stroke-width:3;stroke-linecap:round;stroke-linejoin:round;stroke-miterlimit:10;}
	.st22{fill:none;stroke:#C1C1C1;stroke-miterlimit:10;}
	.st23{fill:none;stroke:#C1C1C1;stroke-width:2;stroke-miterlimit:10;}
	.st24{fill:none;stroke:#FFFFFF;stroke-width:0.96;stroke-miterlimit:10;}
	.st25{fill:none;stroke:#88BDDA;stroke-width:5;stroke-linecap:round;stroke-linejoin:round;stroke-miterlimit:10;}
	.st26{fill:none;stroke:#A8A8A8;stroke-miterlimit:10;}
	.st27{fill:#EFEFEF;}
	.st28{fill:#F9F9F9;stroke:#D1D1D1;stroke-miterlimit:10;}
	.st29{fill:#FFFFFF;stroke:#D1D1D1;stroke-miterlimit:10;}
	.st30{fill:none;stroke:#828282;stroke-width:1.5932;stroke-linecap:round;stroke-linejoin:round;stroke-miterlimit:10;}
	.st31{fill:none;stroke:#4562CC;stroke-miterlimit:10;}
	.st32{fill:none;stroke:#4562CC;stroke-width:3.1933;stroke-linecap:round;stroke-linejoin:round;stroke-miterlimit:10;}
	.st33{opacity:0.22;}
	.st34{opacity:0.3;}
	.st35{fill:#1C1C1B;}
	.st36{fill:#B4B4B4;}
	.st37{fill:#3C3C3A;}
	.st38{fill:#707070;}
	.st39{fill:none;stroke:#325975;stroke-width:3.3;stroke-linecap:round;stroke-linejoin:round;stroke-miterlimit:10;}
	.st40{fill:#F29BB4;}
	.st41{fill:#EF82A2;}
	.st42{fill:none;stroke:#325975;stroke-width:2.75;stroke-linecap:round;stroke-linejoin:round;stroke-miterlimit:10;}
	.st43{fill:#F7C3D2;}
	.st44{fill:none;stroke:#CECECE;stroke-miterlimit:10;}
	.st45{clip-path:url(#SVGID_4_);fill:#B5BEC9;}
	.st46{clip-path:url(#SVGID_4_);fill:#D90024;}
	.st47{clip-path:url(#SVGID_6_);fill:#B5BEC9;}
	.st48{clip-path:url(#SVGID_6_);fill:#D90024;}
</style>
<g>
	<path class="st0" d="M43.16,16.42H4.01C1.81,16.42,0,18.22,0,20.43s1.81,4.01,4.01,4.01h10.25l-7.55,7.55
		c-1.25,1.25-1.25,3.3,0,4.56l1.12,1.12c1.25,1.25,3.3,1.25,4.56,0l7.86-7.86v9.8c0,1.77,1.45,3.22,3.22,3.22h1.58
		c1.77,0,3.22-1.45,3.22-3.22v-9.8l7.86,7.86c1.25,1.25,3.3,1.25,4.56,0l1.12-1.12c1.25-1.25,1.25-3.3,0-4.56l-7.55-7.55h8.88
		c2.21,0,4.01-1.81,4.01-4.01S45.37,16.42,43.16,16.42z"/>
	<g>
		<path class="st0" d="M11.96,3.97c0,0.62-0.09,1.17-0.28,1.64c-0.18,0.47-0.43,0.87-0.73,1.19c-0.3,0.32-0.66,0.56-1.05,0.72
			C9.5,7.69,9.09,7.77,8.66,7.77H6.68v6H5.37V0.32h3.17c0.39,0,0.79,0.06,1.2,0.17c0.41,0.11,0.77,0.31,1.1,0.6
			c0.33,0.29,0.6,0.66,0.81,1.13C11.86,2.69,11.96,3.27,11.96,3.97z M10.65,3.98c0-0.44-0.06-0.82-0.17-1.14
			C10.37,2.51,10.21,2.25,10,2.05C9.8,1.85,9.57,1.7,9.31,1.6C9.05,1.51,8.77,1.46,8.47,1.46H6.68v5.17h1.8
			c0.59,0,1.1-0.22,1.53-0.65C10.44,5.54,10.65,4.88,10.65,3.98z"/>
		<path class="st0" d="M28.3,3.97c0,0.62-0.09,1.17-0.28,1.64c-0.18,0.47-0.43,0.87-0.73,1.19c-0.3,0.32-0.66,0.56-1.05,0.72
			c-0.4,0.16-0.81,0.25-1.24,0.25h-1.98v6H21.7V0.32h3.17c0.39,0,0.79,0.06,1.2,0.17c0.41,0.11,0.77,0.31,1.1,0.6
			c0.33,0.29,0.6,0.66,0.81,1.13C28.19,2.69,28.3,3.27,28.3,3.97z M26.98,3.98c0-0.44-0.06-0.82-0.17-1.14
			c-0.11-0.32-0.27-0.58-0.47-0.79c-0.2-0.2-0.43-0.35-0.69-0.44c-0.26-0.09-0.54-0.14-0.85-0.14h-1.79v5.17h1.8
			c0.59,0,1.1-0.22,1.53-0.65C26.77,5.54,26.98,4.88,26.98,3.98z"/>
		<path class="st0" d="M43.91,13.62c-0.54,0.32-1.16,0.47-1.84,0.47c-0.73,0-1.39-0.18-1.96-0.54c-0.57-0.36-1.05-0.85-1.44-1.48
			c-0.39-0.63-0.69-1.37-0.9-2.23c-0.21-0.86-0.31-1.79-0.31-2.79c0-1.01,0.1-1.95,0.31-2.81c0.21-0.86,0.51-1.61,0.91-2.23
			c0.4-0.63,0.88-1.12,1.45-1.47C40.7,0.18,41.34,0,42.06,0c0.63,0,1.23,0.13,1.78,0.4c0.55,0.27,1.01,0.68,1.38,1.25l-0.85,0.87
			c-0.29-0.44-0.63-0.77-1.02-0.99c-0.39-0.22-0.79-0.32-1.23-0.32c-0.56,0-1.04,0.15-1.45,0.46c-0.41,0.3-0.75,0.72-1.03,1.25
			c-0.27,0.53-0.47,1.15-0.61,1.86c-0.13,0.71-0.2,1.46-0.2,2.26c0,0.8,0.07,1.55,0.21,2.25c0.14,0.7,0.35,1.32,0.62,1.85
			c0.27,0.53,0.61,0.95,1.03,1.26c0.41,0.31,0.9,0.47,1.45,0.47c0.48,0,0.92-0.14,1.31-0.41c0.39-0.27,0.72-0.63,0.97-1.07
			l0.84,0.85C44.9,12.85,44.45,13.3,43.91,13.62z"/>
	</g>
	<g>
		<path class="st0" d="M65.64,12.54h2.54c2.29,0,3.66,1.01,3.66,3.83c0,2.7-1.35,4-3.6,4h-1.9v5.91h-0.7V12.54z M68.06,19.57
			c2.06,0,3.05-0.93,3.05-3.2c0-2.3-1.02-3.02-3.11-3.02h-1.66v6.22H68.06z"/>
		<path class="st0" d="M74.06,12.54h2.54c2.29,0,3.66,1.01,3.66,3.83c0,2.7-1.35,4-3.6,4h-1.9v5.91h-0.7V12.54z M76.48,19.57
			c2.06,0,3.05-0.93,3.05-3.2c0-2.3-1.02-3.02-3.11-3.02h-1.66v6.22H76.48z"/>
		<path class="st0" d="M81.83,19.39c0-4.36,1.75-7.1,4.32-7.1c1.18,0,2.09,0.8,2.63,1.64l-0.41,0.64c-0.55-0.85-1.28-1.41-2.21-1.41
			c-2.21,0-3.58,2.4-3.58,6.21c0,3.82,1.36,6.29,3.53,6.29c1.04,0,1.82-0.58,2.55-1.69l0.41,0.6c-0.77,1.22-1.69,1.96-3,1.96
			C83.56,26.54,81.83,23.76,81.83,19.39z"/>
		<path class="st0" d="M94.19,12.54h5.51v0.83h-4.8v5.48h4.06v0.83H94.9v6.62h-0.7V12.54z"/>
		<path class="st0" d="M100.71,19.37c0-4.35,1.73-7.08,4.16-7.08c2.43,0,4.16,2.73,4.16,7.08c0,4.35-1.73,7.17-4.16,7.17
			C102.44,26.54,100.71,23.72,100.71,19.37z M108.29,19.37c0-3.81-1.37-6.21-3.42-6.21c-2.05,0-3.42,2.39-3.42,6.21
			s1.37,6.3,3.42,6.3C106.92,25.67,108.29,23.19,108.29,19.37z"/>
		<path class="st0" d="M111.36,12.54h2.89c2.01,0,3.32,1,3.32,3.63c0,2.51-1.32,3.8-3.32,3.8h-2.18v6.31h-0.7V12.54z M114.06,19.17
			c1.79,0,2.78-0.96,2.78-3c0-2.07-0.99-2.82-2.78-2.82h-2v5.82H114.06z M114.09,19.7l0.67-0.28l3,6.87h-0.82L114.09,19.7z"/>
		<path class="st0" d="M119.7,12.54h1l2.11,8.06c0.27,1.01,0.53,2.04,0.8,3.05h0.06c0.27-1.02,0.5-2.04,0.77-3.05l2.1-8.06h1v13.75
			h-0.68v-9.04c0-1.11,0.05-2.56,0.09-3.71h-0.06l-0.79,3.07l-2.18,8.18h-0.61l-2.19-8.18l-0.8-3.07h-0.06
			c0.04,1.15,0.09,2.6,0.09,3.71v9.04h-0.65V12.54z"/>
		<path class="st0" d="M132.72,12.54h0.71l3.56,13.75h-0.75l-2.02-8.09c-0.41-1.63-0.77-3.07-1.12-4.75h-0.06
			c-0.35,1.68-0.71,3.12-1.12,4.75l-2.05,8.09h-0.71L132.72,12.54z M130.78,20.77h4.53v0.8h-4.53V20.77z"/>
		<path class="st0" d="M137.79,19.39c0-4.36,1.75-7.1,4.32-7.1c1.18,0,2.09,0.8,2.63,1.64l-0.41,0.64
			c-0.55-0.85-1.28-1.41-2.21-1.41c-2.21,0-3.58,2.4-3.58,6.21c0,3.82,1.36,6.29,3.53,6.29c1.04,0,1.82-0.58,2.55-1.69l0.41,0.6
			c-0.77,1.22-1.69,1.96-3,1.96C139.53,26.54,137.79,23.76,137.79,19.39z"/>
		<path class="st0" d="M147.09,12.54h0.7v13.75h-0.7V12.54z"/>
		<path class="st0" d="M150.12,19.37c0-4.35,1.73-7.08,4.16-7.08s4.16,2.73,4.16,7.08c0,4.35-1.73,7.17-4.16,7.17
			S150.12,23.72,150.12,19.37z M157.7,19.37c0-3.81-1.37-6.21-3.42-6.21c-2.05,0-3.42,2.39-3.42,6.21s1.37,6.3,3.42,6.3
			C156.33,25.67,157.7,23.19,157.7,19.37z M153.66,11.08l1.91-2.55l0.44,0.68l-2.04,2.35L153.66,11.08z"/>
		<path class="st0" d="M160.77,12.54h0.74l4.25,9.69l1.14,2.75h0.06c-0.04-1.35-0.09-2.68-0.09-4.01v-8.43h0.67v13.75h-0.74
			l-4.25-9.69l-1.14-2.74h-0.06c0.04,1.32,0.09,2.57,0.09,3.9v8.54h-0.67V12.54z"/>
		<path class="st0" d="M170.07,25.61c0-0.61,0.31-0.97,0.65-0.97c0.34,0,0.65,0.36,0.65,0.97c0,0.57-0.31,0.93-0.65,0.93
			C170.38,26.54,170.07,26.18,170.07,25.61z"/>
		<path class="st0" d="M173.23,19.39c0-4.36,1.75-7.1,4.32-7.1c1.18,0,2.09,0.8,2.63,1.64l-0.41,0.64
			c-0.55-0.85-1.28-1.41-2.21-1.41c-2.21,0-3.58,2.4-3.58,6.21c0,3.82,1.36,6.29,3.53,6.29c1.04,0,1.82-0.58,2.55-1.69l0.41,0.6
			c-0.77,1.22-1.69,1.96-3,1.96C174.97,26.54,173.23,23.76,173.23,19.39z"/>
		<path class="st0" d="M181.52,19.37c0-4.35,1.73-7.08,4.16-7.08s4.16,2.73,4.16,7.08c0,4.35-1.73,7.17-4.16,7.17
			S181.52,23.72,181.52,19.37z M189.1,19.37c0-3.81-1.37-6.21-3.42-6.21c-2.05,0-3.42,2.39-3.42,6.21s1.37,6.3,3.42,6.3
			C187.73,25.67,189.1,23.19,189.1,19.37z"/>
		<path class="st0" d="M192.17,12.54h1l2.11,8.06c0.27,1.01,0.53,2.04,0.8,3.05h0.06c0.27-1.02,0.5-2.04,0.77-3.05l2.1-8.06h1v13.75
			h-0.68v-9.04c0-1.11,0.05-2.56,0.09-3.71h-0.06l-0.79,3.07l-2.18,8.18h-0.61l-2.19-8.18l-0.8-3.07h-0.06
			c0.04,1.15,0.09,2.6,0.09,3.71v9.04h-0.65V12.54z"/>
	</g>
</g>
</svg>
