<svg id="Capa_1" data-name="Capa 1" xmlns="http://www.w3.org/2000/svg" viewBox="0 0 784.36 1078.7"><defs><style>.cls-1{fill:#fff;}</style></defs><title>libro</title><path class="cls-1" d="M752.19,0H32.61A32.17,32.17,0,0,0,.44,32.15L0,810.83a32.17,32.17,0,0,0,18,28.88L496.74,1075.4a32.17,32.17,0,0,0,14.21,3.31h27.6a16.91,16.91,0,0,0,16.91-16.91V939l86.68,18.46a17.64,17.64,0,0,0,21.32-17.26V842h88.73a32.17,32.17,0,0,0,32.17-32.17V32.17A32.17,32.17,0,0,0,752.19,0ZM494.49,1006,60.62,792V79.28l433.87,214Zm138-81.42-76.8-16.47V274.28a30.6,30.6,0,0,0-17.06-27.44L208.55,84,632.5,174.94ZM724,780.39h-56.1a30.43,30.43,0,0,0-4.77.48V162.58a15.3,15.3,0,0,0-12.09-15L245.64,60.67H724Z"/></svg>