<?xml version="1.0" encoding="utf-8"?>
<!-- Generator: Adobe Illustrator 24.0.1, SVG Export Plug-In . SVG Version: 6.00 Build 0)  -->
<svg version="1.1" id="Capa_1" xmlns="http://www.w3.org/2000/svg" xmlns:xlink="http://www.w3.org/1999/xlink" x="0px" y="0px"
	 viewBox="0 0 20.98 20.71" style="enable-background:new 0 0 20.98 20.71;" xml:space="preserve">
<path id="XMLID_105_" d="M20.69,1.39c-0.18-0.11-0.4-0.12-0.59-0.03l-1.85,0.88V0.82c0-0.12-0.07-0.22-0.17-0.27
	c-0.1-0.05-0.23-0.04-0.32,0.03l-2.89,2.24V0.43c0-0.13-0.09-0.25-0.22-0.29s-0.27,0.01-0.34,0.12L10.79,5.6V0.3
	c0-0.17-0.14-0.31-0.31-0.31s-0.31,0.14-0.31,0.31v5.3L6.68,0.26C6.6,0.15,6.46,0.1,6.33,0.14C6.21,0.18,6.12,0.3,6.12,0.43v2.4
	l-2.9-2.25C3.12,0.51,3,0.5,2.89,0.55C2.79,0.6,2.72,0.71,2.72,0.82v1.41L0.87,1.35C0.68,1.26,0.46,1.28,0.28,1.39
	C0.11,1.5,0,1.7,0,1.91v13.48c0,0.24,0.14,0.45,0.35,0.55l9.88,4.71h0.01c0.01,0,0.02,0.01,0.02,0.01c0.02,0.01,0.03,0.01,0.05,0.02
	c0.01,0,0.02,0.01,0.03,0.01c0.02,0,0.03,0.01,0.05,0.01c0.01,0,0.02,0,0.02,0c0.02,0,0.05,0,0.07,0c0,0,0,0,0.01,0
	c0.03,0,0.05,0,0.08-0.01c0.01,0,0.01,0,0.02,0c0.02,0,0.04-0.01,0.06-0.01c0.01,0,0.02,0,0.02-0.01c0.02-0.01,0.04-0.01,0.05-0.02
	c0.01,0,0.01-0.01,0.02-0.01h0.01l9.88-4.71c0.21-0.1,0.35-0.32,0.35-0.55V1.91C20.98,1.7,20.87,1.5,20.69,1.39z M14.76,3.7
	c0.02-0.02,0.04-0.03,0.05-0.05l2.83-2.2v1.08l-3.57,1.7L14.76,3.7z M14.27,1.45V3.3l-2.5,1.94L14.27,1.45z M6.73,1.45l2.49,3.8
	L6.73,3.31V1.45z M3.33,1.45l2.9,2.25l0,0l0.71,0.55L3.33,2.53V1.45z M9.88,19.13L1.22,15V2.87L9.88,7V19.13z M19.76,15l-8.66,4.13
	V7l8.66-4.13V15z"/>
</svg>
