<?xml version="1.0" encoding="utf-8"?>
<!-- Generator: Adobe Illustrator 24.0.1, SVG Export Plug-In . SVG Version: 6.00 Build 0)  -->
<svg version="1.1" id="Capa_1" xmlns="http://www.w3.org/2000/svg" xmlns:xlink="http://www.w3.org/1999/xlink" x="0px" y="0px"
	 viewBox="0 0 20.98 20.71" style="enable-background:new 0 0 20.98 20.71;" xml:space="preserve">
<style type="text/css">
	.st0{fill:#FFFFFF;}
	.st1{fill:#D6CBB9;}
	.st2{fill:none;stroke:#FFFFFF;stroke-width:2;stroke-miterlimit:10;}
	.st3{fill:#D90024;}
	.st4{fill:none;stroke:#FFFFFF;stroke-width:3;stroke-linecap:round;stroke-linejoin:round;stroke-miterlimit:10;}
	.st5{fill:none;stroke:#FFFFFF;stroke-width:0.6481;stroke-linecap:round;stroke-linejoin:round;stroke-miterlimit:10;}
	.st6{fill:#F9F9F9;}
	.st7{fill:#E8E8E8;}
	.st8{fill:none;stroke:#FBDD65;stroke-width:2;stroke-miterlimit:10;}
	.st9{fill:#FBDD65;}
	.st10{fill:none;stroke:#4CC3A2;stroke-width:3;stroke-linecap:round;stroke-linejoin:round;stroke-miterlimit:10;}
	.st11{clip-path:url(#SVGID_2_);}
	.st12{fill:#727272;}
	.st13{fill:none;stroke:#D6CBB9;stroke-width:2;stroke-miterlimit:10;}
	.st14{fill:#D3264B;}
	.st15{fill:#757575;}
	.st16{fill:#6B9DBF;}
	.st17{fill:#88BDDA;}
	.st18{fill:#F2F7FB;stroke:#C4C4C4;stroke-linecap:round;stroke-linejoin:round;stroke-miterlimit:10;stroke-dasharray:12;}
	.st19{fill:#C6C6C6;}
	.st20{opacity:0.31;fill:#494949;}
	.st21{fill:none;stroke:#88BDDA;stroke-width:3;stroke-linecap:round;stroke-linejoin:round;stroke-miterlimit:10;}
	.st22{fill:none;stroke:#C1C1C1;stroke-miterlimit:10;}
	.st23{fill:none;stroke:#C1C1C1;stroke-width:2;stroke-miterlimit:10;}
	.st24{fill:none;stroke:#FFFFFF;stroke-width:0.96;stroke-miterlimit:10;}
	.st25{fill:none;stroke:#88BDDA;stroke-width:5;stroke-linecap:round;stroke-linejoin:round;stroke-miterlimit:10;}
	.st26{fill:none;stroke:#A8A8A8;stroke-miterlimit:10;}
	.st27{fill:#EFEFEF;}
	.st28{fill:#F9F9F9;stroke:#D1D1D1;stroke-miterlimit:10;}
	.st29{fill:#FFFFFF;stroke:#D1D1D1;stroke-miterlimit:10;}
	.st30{fill:none;stroke:#828282;stroke-width:1.5932;stroke-linecap:round;stroke-linejoin:round;stroke-miterlimit:10;}
	.st31{fill:none;stroke:#4562CC;stroke-miterlimit:10;}
	.st32{fill:none;stroke:#4562CC;stroke-width:3.1933;stroke-linecap:round;stroke-linejoin:round;stroke-miterlimit:10;}
	.st33{opacity:0.22;}
	.st34{opacity:0.3;}
	.st35{fill:#1C1C1B;}
	.st36{fill:#B4B4B4;}
	.st37{fill:#3C3C3A;}
	.st38{fill:#707070;}
	.st39{fill:none;stroke:#325975;stroke-width:3.3;stroke-linecap:round;stroke-linejoin:round;stroke-miterlimit:10;}
	.st40{fill:#F29BB4;}
	.st41{fill:#EF82A2;}
	.st42{fill:none;stroke:#325975;stroke-width:2.75;stroke-linecap:round;stroke-linejoin:round;stroke-miterlimit:10;}
	.st43{fill:#F7C3D2;}
	.st44{fill:none;stroke:#CECECE;stroke-miterlimit:10;}
	.st45{clip-path:url(#SVGID_4_);fill:#B5BEC9;}
	.st46{clip-path:url(#SVGID_4_);fill:#D90024;}
	.st47{clip-path:url(#SVGID_6_);fill:#B5BEC9;}
	.st48{clip-path:url(#SVGID_6_);fill:#D90024;}
</style>
<path id="XMLID_105_" class="st1" d="M20.69,1.39c-0.18-0.11-0.4-0.12-0.59-0.03l-1.85,0.88V0.82c0-0.12-0.07-0.22-0.17-0.27
	c-0.1-0.05-0.23-0.04-0.32,0.03l-2.89,2.24V0.43c0-0.13-0.09-0.25-0.22-0.29c-0.13-0.04-0.27,0.01-0.34,0.12L10.79,5.6v-5.3
	c0-0.17-0.14-0.31-0.31-0.31c-0.17,0-0.31,0.14-0.31,0.31V5.6L6.68,0.26C6.6,0.15,6.46,0.1,6.33,0.14C6.21,0.18,6.12,0.3,6.12,0.43
	v2.4l-2.9-2.25C3.12,0.51,3,0.5,2.89,0.55C2.79,0.6,2.72,0.71,2.72,0.82v1.41L0.87,1.35C0.68,1.26,0.46,1.28,0.28,1.39
	C0.11,1.5,0,1.7,0,1.91v13.48c0,0.24,0.14,0.45,0.35,0.55l9.88,4.71c0,0,0.01,0,0.01,0c0.01,0,0.02,0.01,0.02,0.01
	c0.02,0.01,0.03,0.01,0.05,0.02c0.01,0,0.02,0.01,0.03,0.01c0.02,0,0.03,0.01,0.05,0.01c0.01,0,0.02,0,0.02,0c0.02,0,0.05,0,0.07,0
	c0,0,0,0,0.01,0c0.03,0,0.05,0,0.08-0.01c0.01,0,0.01,0,0.02,0c0.02,0,0.04-0.01,0.06-0.01c0.01,0,0.02,0,0.02-0.01
	c0.02-0.01,0.04-0.01,0.05-0.02c0.01,0,0.01-0.01,0.02-0.01c0,0,0.01,0,0.01,0l9.88-4.71c0.21-0.1,0.35-0.32,0.35-0.55V1.91
	C20.98,1.7,20.87,1.5,20.69,1.39z M14.76,3.7c0.02-0.02,0.04-0.03,0.05-0.05l2.83-2.2v1.08l-3.57,1.7L14.76,3.7z M14.27,1.45V3.3
	l-2.5,1.94L14.27,1.45z M6.73,1.45l2.49,3.8L6.73,3.31V1.45z M3.33,1.45l2.9,2.25l0,0l0.71,0.55L3.33,2.53V1.45z M9.88,19.13
	L1.22,15V2.87L9.88,7V19.13z M19.76,15l-8.66,4.13V7l8.66-4.13V15z"/>
</svg>
