<svg xmlns="http://www.w3.org/2000/svg" viewBox="0 0 32.82 36.06"><g id="ba443696-9a7b-4ce1-aaf4-3b8473a17eb6" data-name="Layer 2"><g id="ae4470b9-f6c0-48d5-a76a-6dd87198d177" data-name="Capa 1"><path d="M29.62,13.26V11.41h3.2V10.05H0v1.36H3.19v1.85H4v16.6H3.19v1.81H2.12v2.2H0v2.19H32.82V33.87H30.7v-2.2H29.62V29.86h-.81V13.26Zm-19.78.28H9.16v14h.68V29.1H5.25V27.57h.68v-14H5.25V12H9.84Zm8.87,0H18v14h.69V29.1h-4.6V27.57h.69v-14h-.69V12h4.6Zm8.86,0h-.68v14h.68V29.1H23V27.57h.69v-14H23V12h4.6Z" fill="#fff"/><polygon points="0 8.17 16.39 0 32.82 8.17 0 8.17" fill="#fff"/></g></g></svg>