<svg xmlns="http://www.w3.org/2000/svg" viewBox="0 0 51.11 25.58"><g id="f80b4071-8572-4119-ab43-88bcaf9978ec" data-name="Layer 2"><g id="f52b6498-62b6-416c-a497-6a910c18e200" data-name="Capa 1"><path d="M49.36,12.85c-2-2-8.79-3.32-8.86-3.44h-.92c-.74-1.61-3-6-5.68-7.45a18.27,18.27,0,0,0-8.48-2c-3.33.08-7.73,1-9.7,2.7C14.18,4,12.17,7.64,11.52,9.41h-.9c-.08.12-6.87,1.4-8.86,3.44s-2.41,7.92-.39,7.92H7.76c0,.13,0,.26,0,.4a4.42,4.42,0,0,0,8.83,0c0-.14,0-.27,0-.4H34.84a2.61,2.61,0,0,0,0,.4,4.42,4.42,0,0,0,8.83,0c0-.14,0-.27,0-.4h6.12C51.76,20.77,51.48,15,49.36,12.85ZM23.58,8.41h-8a16.76,16.76,0,0,1,2.55-3.88,12.8,12.8,0,0,1,5.44-1.66Zm5.94,0H27.3V2.8a14.05,14.05,0,0,1,4.87,1.45c1,.51,2.26,2.36,3.25,4.16Z" fill="#fff"/></g></g></svg>