<svg xmlns="http://www.w3.org/2000/svg" viewBox="0 0 45.17 25.25"><g id="a050358b-8914-4721-af73-b011da0cab6c" data-name="Layer 2"><g id="b1c2c5f6-4c40-4bba-9900-ebf9754f0a03" data-name="Capa 1"><path d="M37.46,25.25H23.69a5.78,5.78,0,0,0,2.64-4.81,6,6,0,0,0-6.11-5.83h0a7.49,7.49,0,0,0-2.85-5.79,9.63,9.63,0,0,1,19.22.9c0,.22,0,.45,0,.67a7.92,7.92,0,0,1,.85-.05,7.61,7.61,0,0,1,7.75,7.46A7.6,7.6,0,0,1,37.46,25.25Z" fill="#fff"/><path d="M20.24,25.21h-15A5.3,5.3,0,1,1,6,14.65l.55.08,0-.41a6.61,6.61,0,0,1,.77-2.71,6.33,6.33,0,0,1,11.88,3.08c0,.14,0,.29,0,.44l0,.63.62-.07a5.07,5.07,0,0,1,.55,0,4.89,4.89,0,0,1,5,4.78,4.88,4.88,0,0,1-5,4.77Z" fill="#fff"/></g></g></svg>