<svg xmlns="http://www.w3.org/2000/svg" viewBox="0 0 26.01 37.17"><g id="a3f9b275-7508-486b-8ee5-de7e3876eba1" data-name="Layer 2"><g id="b1fdfcfc-1eee-4e14-b69d-90a12ef7aa41" data-name="Capa 1"><path d="M20.67,13.5h0v0h0c-.36-.29-.74-.56-1.15-.83a1.08,1.08,0,0,0-.82-.13,37.44,37.44,0,0,0-3.56-7A22.72,22.72,0,0,0,10.55.24,1.1,1.1,0,0,0,9.24.2a1.08,1.08,0,0,0-.42,1.23,14.54,14.54,0,0,1,.77,4.39,8.23,8.23,0,0,1-.88,3.8,13.77,13.77,0,0,1-2.2,3c-1.62,1.81-3.66,3.63-5,6.31A13.57,13.57,0,0,0,0,25.32a6,6,0,0,0,0,.62V26l0,.15a1.22,1.22,0,0,0,0,.27,12.62,12.62,0,0,0,4.4,7.65,13.11,13.11,0,1,0,16.2-20.6ZM17.84,32.19c-.07.14-.15.27-.23.41a1.74,1.74,0,0,1-.11.18l-.06.09a3.42,3.42,0,0,1-.26.4h0A5.77,5.77,0,0,1,7,30.56a3,3,0,0,1-.13-.36c-1-5.8,3.56-10.75,5.08-14.07a19,19,0,0,0,.47-2C16.11,19.71,21.06,26.06,17.84,32.19Z" fill="#fff"/></g></g></svg>