<svg xmlns="http://www.w3.org/2000/svg" viewBox="0 0 43.13 34.82"><g id="e5963b37-0828-45ff-89b9-dbd874891cba" data-name="Layer 2"><g id="e0d5f19f-a133-49d7-b9b2-94996259dd7e" data-name="Capa 1"><path d="M9.05,21.38a1,1,0,0,1,0,1.36l-.84.83a.94.94,0,0,1-1.35,0l-2-2L2.47,23.88a1,1,0,0,1-1.35,0l-.84-.83a1,1,0,0,1,0-1.36l2.35-2.35L.69,17.41a1,1,0,0,1,0-1.36l.84-.83a.94.94,0,0,1,1.35,0l1.94,1.93L6,16a10,10,0,1,1,2.19,2.19L7,19.34Z" fill="#fff"/><path d="M43.13,18.8a.82.82,0,0,1-.82.81H40.85A.82.82,0,0,1,40,18.8V16.51L37.7,18.84a10,10,0,1,1-2.19-2.19l2.32-2.33H35.55a.82.82,0,0,1-.82-.82V12a.82.82,0,0,1,.82-.82h6.76a.82.82,0,0,1,.82.82Z" fill="#fff"/></g></g></svg>