<svg xmlns="http://www.w3.org/2000/svg" viewBox="0 0 49.56 18.02"><g id="a3971c19-2dac-4992-9a14-d9d829d242c2" data-name="Layer 2"><g id="aff52f14-e6be-4e47-8f22-765b323c2771" data-name="Capa 1"><path d="M.13,7.85a1.6,1.6,0,0,1,0-1.16c.08-.2.54-.22.88-.34V7l-.78.25c.31.33,1,0,.81.86C.69,8,.22,8,.13,7.85Zm49.31,0a1.65,1.65,0,0,0,0-1.16c-.07-.2-.54-.22-.87-.34V7l.78.25c-.31.33-1,0-.82.86C48.87,8,49.34,8,49.44,7.85Zm-2,.26H47.4c-1.34.12-1.34.12-1.54,1.57-.69,5-4.18,8.35-8.81,8.34-4.35,0-7.64-2.95-8.71-7.85A22.71,22.71,0,0,1,28,7c-.06-.79-.15-1-.84-1.21a8.6,8.6,0,0,0-4.72,0c-.69.19-.78.42-.84,1.21a22.71,22.71,0,0,1-.36,3.2C20.16,15.07,16.86,18,12.51,18c-4.63,0-8.12-3.3-8.81-8.34-.19-1.45-.19-1.45-1.53-1.57H2.11C1.48,8,1.28,7.75,1.31,7s.46-.6.85-.6h.26a1.19,1.19,0,0,0,1.25-.71l.42-.79A8.62,8.62,0,0,1,13.16.07,10.6,10.6,0,0,1,20,3.78a1.39,1.39,0,0,0,1.68.47A8.33,8.33,0,0,1,25,3.71a8.2,8.2,0,0,1,2.93.54,1.39,1.39,0,0,0,1.68-.47A10.62,10.62,0,0,1,36.41.07a8.62,8.62,0,0,1,9.06,4.8l.42.79a1.2,1.2,0,0,0,1.25.71h.26c.4,0,.82-.05.85.6S48.08,8,47.45,8.11ZM19.82,5.94a7,7,0,0,0-3.31-3.83A8.65,8.65,0,0,0,9,1.51C5.53,2.88,3.83,6.29,4.6,10.27c.64,3.31,2.41,5.54,5.34,6.54A7.41,7.41,0,0,0,18,15a7.93,7.93,0,0,0,2.17-4.46l-.33.23c-.05.19-.11.38-.17.57l-.09.27a.11.11,0,0,1-.22-.06,23,23,0,0,0,.51-2.6.1.1,0,0,1,.2,0,6.31,6.31,0,0,1-.05,1l.25,0A7,7,0,0,0,19.82,5.94ZM40.56,1.51a8.67,8.67,0,0,0-7.51.6,6.93,6.93,0,0,0-3.3,3.83,6.9,6.9,0,0,0-.44,3.93l.26,0a4.54,4.54,0,0,1-.05-1,.1.1,0,0,1,.19,0,23,23,0,0,0,.52,2.6.12.12,0,0,1-.23.06l-.09-.27c-.06-.19-.12-.38-.17-.57l-.32-.23A7.81,7.81,0,0,0,31.59,15a7.4,7.4,0,0,0,8,1.85c2.93-1,4.7-3.23,5.34-6.54C45.73,6.29,44,2.88,40.56,1.51Z" fill="#fff" fill-rule="evenodd"/></g></g></svg>