<?xml version="1.0" encoding="utf-8"?>
<!-- Generator: Adobe Illustrator 24.0.1, SVG Export Plug-In . SVG Version: 6.00 Build 0)  -->
<svg version="1.1" id="Capa_1" xmlns="http://www.w3.org/2000/svg" xmlns:xlink="http://www.w3.org/1999/xlink" x="0px" y="0px"
	 viewBox="0 0 27.03 19.85" style="enable-background:new 0 0 27.03 19.85;" xml:space="preserve">
<style type="text/css">
	.st0{fill:none;stroke:#000000;stroke-width:2;stroke-miterlimit:10;}
</style>
<g>
	<g>
		<path class="st0" d="M6.55,9.75L6.55,9.75l-0.12,5.61c-0.01,0.28,0.08,0.55,0.24,0.74c0.65,0.79,3.02,2.75,7.48,2.75
			c4.34,0,6.29-2.01,6.62-2.75c0.06-0.14,0.09-0.3,0.09-0.46l0.05-5.53l0,0l-6.17,2.48l0,0L6.55,9.75z"/>
		<polygon class="st0" points="25.95,5.86 12.68,1.07 12.68,1.07 1.06,5.83 1.06,5.83 1.11,6.42 1.11,6.42 6.79,8.91 14.43,12.26 
			14.43,12.26 20.19,9.33 25.9,6.42 25.9,6.42 		"/>
	</g>
</g>
</svg>
