<?xml version="1.0" encoding="utf-8"?>
<!-- Generator: Adobe Illustrator 24.0.1, SVG Export Plug-In . SVG Version: 6.00 Build 0)  -->
<svg version="1.1" id="Capa_1" xmlns="http://www.w3.org/2000/svg" xmlns:xlink="http://www.w3.org/1999/xlink" x="0px" y="0px"
	 viewBox="0 0 28 28" style="enable-background:new 0 0 28 28;" xml:space="preserve">
<style type="text/css">
	.st0{fill:#FFFFFF;}
	.st1{fill:#D6CBB9;}
	.st2{fill:none;stroke:#FFFFFF;stroke-width:2;stroke-miterlimit:10;}
	.st3{fill:#D90024;}
	.st4{fill:none;stroke:#FFFFFF;stroke-width:3;stroke-linecap:round;stroke-linejoin:round;stroke-miterlimit:10;}
	.st5{fill:none;stroke:#FFFFFF;stroke-width:0.6481;stroke-linecap:round;stroke-linejoin:round;stroke-miterlimit:10;}
	.st6{fill:#F9F9F9;}
	.st7{fill:#E8E8E8;}
	.st8{fill:none;stroke:#FBDD65;stroke-width:2;stroke-miterlimit:10;}
	.st9{fill:#FBDD65;}
	.st10{fill:none;stroke:#4CC3A2;stroke-width:3;stroke-linecap:round;stroke-linejoin:round;stroke-miterlimit:10;}
	.st11{clip-path:url(#SVGID_2_);}
	.st12{fill:#727272;}
	.st13{fill:none;stroke:#D6CBB9;stroke-width:2;stroke-miterlimit:10;}
	.st14{fill:#D3264B;}
	.st15{fill:#757575;}
	.st16{fill:#6B9DBF;}
	.st17{fill:#88BDDA;}
	.st18{fill:#F2F7FB;stroke:#C4C4C4;stroke-linecap:round;stroke-linejoin:round;stroke-miterlimit:10;stroke-dasharray:12;}
	.st19{fill:#C6C6C6;}
	.st20{opacity:0.31;fill:#494949;}
	.st21{fill:none;stroke:#88BDDA;stroke-width:3;stroke-linecap:round;stroke-linejoin:round;stroke-miterlimit:10;}
	.st22{fill:none;stroke:#C1C1C1;stroke-miterlimit:10;}
	.st23{fill:none;stroke:#C1C1C1;stroke-width:2;stroke-miterlimit:10;}
	.st24{fill:none;stroke:#FFFFFF;stroke-width:0.96;stroke-miterlimit:10;}
	.st25{fill:none;stroke:#88BDDA;stroke-width:5;stroke-linecap:round;stroke-linejoin:round;stroke-miterlimit:10;}
	.st26{fill:none;stroke:#A8A8A8;stroke-miterlimit:10;}
	.st27{fill:#EFEFEF;}
	.st28{fill:#F9F9F9;stroke:#D1D1D1;stroke-miterlimit:10;}
	.st29{fill:#FFFFFF;stroke:#D1D1D1;stroke-miterlimit:10;}
	.st30{fill:none;stroke:#828282;stroke-width:1.5932;stroke-linecap:round;stroke-linejoin:round;stroke-miterlimit:10;}
	.st31{fill:none;stroke:#4562CC;stroke-miterlimit:10;}
	.st32{fill:none;stroke:#4562CC;stroke-width:3.1933;stroke-linecap:round;stroke-linejoin:round;stroke-miterlimit:10;}
	.st33{opacity:0.22;}
	.st34{opacity:0.3;}
	.st35{fill:#1C1C1B;}
	.st36{fill:#B4B4B4;}
	.st37{fill:#3C3C3A;}
	.st38{fill:#707070;}
	.st39{fill:none;stroke:#325975;stroke-width:3.3;stroke-linecap:round;stroke-linejoin:round;stroke-miterlimit:10;}
	.st40{fill:#F29BB4;}
	.st41{fill:#EF82A2;}
	.st42{fill:none;stroke:#325975;stroke-width:2.75;stroke-linecap:round;stroke-linejoin:round;stroke-miterlimit:10;}
	.st43{fill:#F7C3D2;}
	.st44{fill:none;stroke:#CECECE;stroke-miterlimit:10;}
	.st45{clip-path:url(#SVGID_4_);fill:#B5BEC9;}
	.st46{clip-path:url(#SVGID_4_);fill:#D90024;}
	.st47{clip-path:url(#SVGID_6_);fill:#B5BEC9;}
	.st48{clip-path:url(#SVGID_6_);fill:#D90024;}
</style>
<g>
	<g>
		<circle class="st2" cx="14" cy="14" r="13"/>
		<g>
			<path class="st0" d="M16.14,18.41h-3.29v-5.12h1.05c0.81,0,1.45-0.23,1.9-0.7c0.45-0.47,0.68-1.11,0.68-1.94
				c0-0.76-0.17-1.34-0.5-1.75c-0.33-0.41-0.81-0.61-1.44-0.61s-1.11,0.19-1.45,0.57c-0.33,0.38-0.5,0.94-0.5,1.69
				c0,0.04,0,0.1,0.01,0.18c0.01,0.08,0.01,0.14,0.01,0.18H9.23v-0.38c0-1.48,0.5-2.67,1.51-3.56s2.34-1.34,4-1.34
				c1.62,0,2.9,0.46,3.83,1.38c0.94,0.92,1.41,2.17,1.41,3.77c0,1.23-0.33,2.23-0.98,3s-1.61,1.29-2.86,1.55V18.41z M12.43,21.94
				c0-0.57,0.2-1.05,0.6-1.44c0.4-0.39,0.89-0.59,1.45-0.59c0.57,0,1.06,0.2,1.46,0.59c0.4,0.39,0.6,0.88,0.6,1.44
				c0,0.57-0.2,1.05-0.6,1.45c-0.4,0.4-0.89,0.6-1.46,0.6c-0.57,0-1.05-0.2-1.45-0.61C12.63,22.98,12.43,22.5,12.43,21.94z"/>
		</g>
	</g>
</g>
</svg>
