<?xml version="1.0" encoding="utf-8"?>
<!-- Generator: Adobe Illustrator 24.0.1, SVG Export Plug-In . SVG Version: 6.00 Build 0)  -->
<svg version="1.1" id="Capa_1" xmlns="http://www.w3.org/2000/svg" xmlns:xlink="http://www.w3.org/1999/xlink" x="0px" y="0px"
	 viewBox="0 0 15.28 17.5" style="enable-background:new 0 0 15.28 17.5;" xml:space="preserve">
<path d="M14.39,0.21c-0.2-0.11-0.41-0.17-0.64-0.2C13.69,0,13.64,0,13.58,0h-0.17h-3.13H2.65c-0.94,0-1.7,0.76-1.7,1.7v0.85H0.31
	C0.14,2.55,0,2.69,0,2.86v1.56c0,0.17,0.14,0.31,0.31,0.31h0.64V5.9H0.31C0.14,5.9,0,6.04,0,6.21v1.56c0,0.17,0.14,0.31,0.31,0.31
	h0.64v1.17H0.31C0.14,9.25,0,9.39,0,9.56v1.56c0,0.17,0.14,0.31,0.31,0.31h0.64v1.17H0.31C0.14,12.6,0,12.74,0,12.92v1.56
	c0,0.17,0.14,0.31,0.31,0.31h0.64v1.02c0,0.94,0.76,1.7,1.7,1.7h10.93c0.06,0,0.12,0,0.17-0.01c0.22-0.02,0.44-0.09,0.64-0.2
	c0.14-0.08,0.27-0.18,0.39-0.29c0.32-0.32,0.5-0.75,0.5-1.2V1.7c0-0.45-0.18-0.88-0.5-1.2C14.66,0.38,14.53,0.28,14.39,0.21z
	 M12.37,3.59c-0.07-0.07-0.15-0.12-0.27-0.11c-0.1,0-0.19,0.04-0.26,0.11l-1.25,1.25l-0.01-4.22h3.02l0.01,4.23L12.37,3.59z"/>
</svg>
