<?xml version="1.0" encoding="utf-8"?>
<!-- Generator: Adobe Illustrator 24.0.1, SVG Export Plug-In . SVG Version: 6.00 Build 0)  -->
<svg version="1.1" id="Capa_1" xmlns="http://www.w3.org/2000/svg" xmlns:xlink="http://www.w3.org/1999/xlink" x="0px" y="0px"
	 viewBox="0 0 15.28 17.5" style="enable-background:new 0 0 15.28 17.5;" xml:space="preserve">
<style type="text/css">
	.st0{fill:#E8E8E8;}
	.st1{fill:#CFCFCF;}
	.st2{fill:#F8F8F8;stroke:#CFCFCF;stroke-width:0.3331;stroke-miterlimit:10;}
	.st3{fill:#B4B6B9;}
	.st4{fill:#3791FF;}
	.st5{fill:#1432B9;}
	.st6{fill:#8C9196;}
	.st7{fill:#FFFFFF;stroke:#CFCFCF;stroke-width:1.5543;stroke-miterlimit:10;}
	.st8{fill:#2387F5;}
	.st9{fill:#071EA0;}
	.st10{fill:#D90024;}
	.st11{fill:#FFFFFF;}
	.st12{fill:#D3264B;}
	.st13{fill:#757575;}
	.st14{fill:#D6CBB9;}
	.st15{fill:#6B9DBF;}
	.st16{fill:none;stroke:#FFFFFF;stroke-width:3;stroke-linecap:round;stroke-linejoin:round;stroke-miterlimit:10;}
	.st17{fill:none;stroke:#FFFFFF;stroke-width:0.6481;stroke-linecap:round;stroke-linejoin:round;stroke-miterlimit:10;}
	.st18{fill:#F9F9F9;}
	.st19{fill:none;stroke:#FBDD65;stroke-width:2;stroke-miterlimit:10;}
	.st20{fill:#FBDD65;}
	.st21{fill:none;stroke:#4CC3A2;stroke-width:3;stroke-linecap:round;stroke-linejoin:round;stroke-miterlimit:10;}
	.st22{clip-path:url(#SVGID_2_);}
	.st23{fill:#727272;}
	.st24{fill:none;stroke:#FFFFFF;stroke-width:2;stroke-miterlimit:10;}
	.st25{fill:none;stroke:#CECECE;stroke-miterlimit:10;}
	.st26{fill:none;stroke:#88BDDA;stroke-width:5;stroke-linecap:round;stroke-linejoin:round;stroke-miterlimit:10;}
	.st27{fill:none;stroke:#D6CBB9;stroke-width:2;stroke-miterlimit:10;}
	.st28{clip-path:url(#SVGID_4_);fill:#B5BEC9;}
	.st29{clip-path:url(#SVGID_4_);fill:#D90024;}
	.st30{clip-path:url(#SVGID_6_);fill:#B5BEC9;}
	.st31{clip-path:url(#SVGID_6_);fill:#D90024;}
	.st32{fill:#7C7C7C;}
	.st33{fill:none;stroke:#FFFFFF;stroke-miterlimit:10;}
	.st34{fill:#88BDDA;}
	.st35{fill:none;stroke:#D8D8D8;stroke-miterlimit:10;}
	.st36{fill:#EFEFEF;}
	.st37{fill:#4FA9ED;}
	.st38{fill:#BCBCBC;}
	.st39{fill:#CECECE;}
	.st40{fill:#E2E2E2;}
	.st41{clip-path:url(#SVGID_8_);fill:#B5BEC9;}
	.st42{clip-path:url(#SVGID_8_);fill:#D90024;}
	.st43{clip-path:url(#SVGID_10_);fill:#B5BEC9;}
	.st44{clip-path:url(#SVGID_10_);fill:#D90024;}
	.st45{fill:#848484;}
	.st46{fill:none;stroke:#4FA9ED;stroke-width:2;stroke-miterlimit:10;}
	.st47{fill:#E26A84;}
	.st48{clip-path:url(#SVGID_12_);fill:#B5BEC9;}
	.st49{clip-path:url(#SVGID_12_);fill:#D90024;}
	.st50{clip-path:url(#SVGID_14_);fill:#B5BEC9;}
	.st51{clip-path:url(#SVGID_14_);fill:#D90024;}
	.st52{clip-path:url(#SVGID_16_);fill:#B5BEC9;}
	.st53{clip-path:url(#SVGID_16_);fill:#D90024;}
	.st54{clip-path:url(#SVGID_18_);fill:#B5BEC9;}
	.st55{clip-path:url(#SVGID_18_);fill:#D90024;}
	.st56{clip-path:url(#SVGID_20_);fill:#B5BEC9;}
	.st57{clip-path:url(#SVGID_20_);fill:#D90024;}
	.st58{clip-path:url(#SVGID_22_);fill:#B5BEC9;}
	.st59{clip-path:url(#SVGID_22_);fill:#D90024;}
	.st60{clip-path:url(#SVGID_24_);fill:#B5BEC9;}
	.st61{clip-path:url(#SVGID_24_);fill:#D90024;}
	.st62{clip-path:url(#SVGID_26_);fill:#B5BEC9;}
	.st63{clip-path:url(#SVGID_26_);fill:#D90024;}
	.st64{clip-path:url(#SVGID_28_);fill:#B5BEC9;}
	.st65{clip-path:url(#SVGID_28_);fill:#D90024;}
	.st66{clip-path:url(#SVGID_30_);fill:#B5BEC9;}
	.st67{clip-path:url(#SVGID_30_);fill:#D90024;}
	.st68{clip-path:url(#SVGID_32_);fill:#B5BEC9;}
	.st69{clip-path:url(#SVGID_32_);fill:#D90024;}
	.st70{clip-path:url(#SVGID_34_);fill:#B5BEC9;}
	.st71{clip-path:url(#SVGID_34_);fill:#D90024;}
	.st72{fill:#FFFFFF;stroke:#D1D1D1;stroke-miterlimit:10;}
	.st73{fill:none;stroke:#828282;stroke-width:1.5932;stroke-linecap:round;stroke-linejoin:round;stroke-miterlimit:10;}
	.st74{fill:#B5DCEA;}
	.st75{fill:#F9F9F9;stroke:#D1D1D1;stroke-miterlimit:10;}
	.st76{fill:none;stroke:#919191;stroke-width:1.3329;stroke-miterlimit:10;}
	.st77{fill:#F4F4F4;}
	.st78{fill:#9F9F9F;}
</style>
<path class="st14" d="M14.39,0.21c-0.2-0.11-0.41-0.17-0.64-0.2C13.69,0,13.64,0,13.58,0h-0.17h-3.13H2.65c-0.94,0-1.7,0.76-1.7,1.7
	v0.85H0.31C0.14,2.55,0,2.69,0,2.86v1.56c0,0.17,0.14,0.31,0.31,0.31h0.64V5.9H0.31C0.14,5.9,0,6.04,0,6.21v1.56
	c0,0.17,0.14,0.31,0.31,0.31h0.64v1.17H0.31C0.14,9.25,0,9.39,0,9.56v1.56c0,0.17,0.14,0.31,0.31,0.31h0.64v1.17H0.31
	C0.14,12.6,0,12.74,0,12.92v1.56c0,0.17,0.14,0.31,0.31,0.31h0.64v1.02c0,0.94,0.76,1.7,1.7,1.7h10.93c0.06,0,0.12,0,0.17-0.01
	c0.22-0.02,0.44-0.09,0.64-0.2c0.14-0.08,0.27-0.18,0.39-0.29c0.32-0.32,0.5-0.75,0.5-1.2V1.7c0-0.45-0.18-0.88-0.5-1.2
	C14.66,0.38,14.53,0.28,14.39,0.21z M12.37,3.59c-0.07-0.07-0.15-0.12-0.27-0.11c-0.1,0-0.19,0.04-0.26,0.11l-1.25,1.25l-0.01-4.22
	h3.02l0.01,4.23L12.37,3.59z"/>
</svg>
