<?xml version="1.0" encoding="utf-8"?>
<!-- Generator: Adobe Illustrator 24.0.1, SVG Export Plug-In . SVG Version: 6.00 Build 0)  -->
<svg version="1.1" id="Capa_1" xmlns="http://www.w3.org/2000/svg" xmlns:xlink="http://www.w3.org/1999/xlink" x="0px" y="0px"
	 viewBox="0 0 18.94 18.85" style="enable-background:new 0 0 18.94 18.85;" xml:space="preserve">
<g>
	<path d="M15.58,2.05c-1.27-1.17-3.15-1.96-5.15-2L10.39,7.4L15.58,2.05z"/>
	<path d="M9.05,0C3.84,0,0,4.22,0,9.43s4.22,9.43,9.43,9.43c3.65,0,7.04-2.16,8.29-4.94L9.24,9.43V0C9.18,0,9.11,0,9.05,0z"/>
	<g>
		<polygon points="13.91,5.43 12.55,9.78 13.33,10.2 15.27,4.03 		"/>
		<polygon points="12.15,7.24 11.52,9.23 12.31,9.65 13.51,5.84 		"/>
		<path d="M17.74,4.62l-2.13,6.8l0.79,0.42l1.91-6.08C18.14,5.36,17.95,4.98,17.74,4.62z"/>
		<path d="M18.45,6.15l-1.83,5.82l0.79,0.42l1.44-4.59C18.78,7.23,18.64,6.68,18.45,6.15z"/>
		<path d="M18.94,8.89c0-0.15,0-0.3-0.01-0.44l-1.28,4.06l0.46,0.25C18.7,11.61,18.94,10.27,18.94,8.89z"/>
		<path d="M16.4,2.87l-0.73,0.75l-2.1,6.7l0.79,0.42l2.37-7.54C16.61,3.09,16.51,2.98,16.4,2.87z"/>
		<polygon points="10.66,8.77 11.29,9.11 11.75,7.65 		"/>
		<path d="M16.92,3.44l-2.33,7.43l0.79,0.42l2.19-6.97C17.36,4.01,17.15,3.72,16.92,3.44z"/>
	</g>
</g>
</svg>
