<?xml version="1.0" encoding="utf-8"?>
<!-- Generator: Adobe Illustrator 24.0.1, SVG Export Plug-In . SVG Version: 6.00 Build 0)  -->
<svg version="1.1" id="Capa_1" xmlns="http://www.w3.org/2000/svg" xmlns:xlink="http://www.w3.org/1999/xlink" x="0px" y="0px"
	 viewBox="0 0 18.94 18.85" style="enable-background:new 0 0 18.94 18.85;" xml:space="preserve">
<style type="text/css">
	.st0{fill:#FFFFFF;}
	.st1{fill:#D6CBB9;}
	.st2{fill:none;stroke:#FFFFFF;stroke-width:2;stroke-miterlimit:10;}
	.st3{fill:#D90024;}
	.st4{fill:none;stroke:#FFFFFF;stroke-width:3;stroke-linecap:round;stroke-linejoin:round;stroke-miterlimit:10;}
	.st5{fill:none;stroke:#FFFFFF;stroke-width:0.6481;stroke-linecap:round;stroke-linejoin:round;stroke-miterlimit:10;}
	.st6{fill:#F9F9F9;}
	.st7{fill:#E8E8E8;}
	.st8{fill:none;stroke:#FBDD65;stroke-width:2;stroke-miterlimit:10;}
	.st9{fill:#FBDD65;}
	.st10{fill:none;stroke:#4CC3A2;stroke-width:3;stroke-linecap:round;stroke-linejoin:round;stroke-miterlimit:10;}
	.st11{clip-path:url(#SVGID_2_);}
	.st12{fill:#727272;}
	.st13{fill:none;stroke:#D6CBB9;stroke-width:2;stroke-miterlimit:10;}
	.st14{fill:#D3264B;}
	.st15{fill:#757575;}
	.st16{fill:#6B9DBF;}
	.st17{fill:#88BDDA;}
	.st18{fill:#F2F7FB;stroke:#C4C4C4;stroke-linecap:round;stroke-linejoin:round;stroke-miterlimit:10;stroke-dasharray:12;}
	.st19{fill:#C6C6C6;}
	.st20{opacity:0.31;fill:#494949;}
	.st21{fill:none;stroke:#88BDDA;stroke-width:3;stroke-linecap:round;stroke-linejoin:round;stroke-miterlimit:10;}
	.st22{fill:none;stroke:#C1C1C1;stroke-miterlimit:10;}
	.st23{fill:none;stroke:#C1C1C1;stroke-width:2;stroke-miterlimit:10;}
	.st24{fill:none;stroke:#FFFFFF;stroke-width:0.96;stroke-miterlimit:10;}
	.st25{fill:none;stroke:#88BDDA;stroke-width:5;stroke-linecap:round;stroke-linejoin:round;stroke-miterlimit:10;}
	.st26{fill:none;stroke:#A8A8A8;stroke-miterlimit:10;}
	.st27{fill:#EFEFEF;}
	.st28{fill:#F9F9F9;stroke:#D1D1D1;stroke-miterlimit:10;}
	.st29{fill:#FFFFFF;stroke:#D1D1D1;stroke-miterlimit:10;}
	.st30{fill:none;stroke:#828282;stroke-width:1.5932;stroke-linecap:round;stroke-linejoin:round;stroke-miterlimit:10;}
	.st31{fill:none;stroke:#4562CC;stroke-miterlimit:10;}
	.st32{fill:none;stroke:#4562CC;stroke-width:3.1933;stroke-linecap:round;stroke-linejoin:round;stroke-miterlimit:10;}
	.st33{opacity:0.22;}
	.st34{opacity:0.3;}
	.st35{fill:#1C1C1B;}
	.st36{fill:#B4B4B4;}
	.st37{fill:#3C3C3A;}
	.st38{fill:#707070;}
	.st39{fill:none;stroke:#325975;stroke-width:3.3;stroke-linecap:round;stroke-linejoin:round;stroke-miterlimit:10;}
	.st40{fill:#F29BB4;}
	.st41{fill:#EF82A2;}
	.st42{fill:none;stroke:#325975;stroke-width:2.75;stroke-linecap:round;stroke-linejoin:round;stroke-miterlimit:10;}
	.st43{fill:#F7C3D2;}
	.st44{fill:none;stroke:#CECECE;stroke-miterlimit:10;}
	.st45{clip-path:url(#SVGID_4_);fill:#B5BEC9;}
	.st46{clip-path:url(#SVGID_4_);fill:#D90024;}
	.st47{clip-path:url(#SVGID_6_);fill:#B5BEC9;}
	.st48{clip-path:url(#SVGID_6_);fill:#D90024;}
</style>
<g>
	<g>
		<path class="st0" d="M15.58,2.05c-1.27-1.17-3.15-1.96-5.15-2L10.39,7.4L15.58,2.05z"/>
		<path class="st0" d="M9.05,0C3.84,0,0,4.22,0,9.43s4.22,9.43,9.43,9.43c3.65,0,7.04-2.16,8.29-4.94L9.24,9.43V0
			C9.18,0,9.11,0,9.05,0z"/>
		<g>
			<polygon class="st0" points="13.91,5.43 12.55,9.78 13.33,10.2 15.27,4.03 			"/>
			<polygon class="st0" points="12.15,7.24 11.52,9.23 12.31,9.65 13.51,5.84 			"/>
			<path class="st0" d="M17.74,4.62l-2.13,6.8l0.79,0.42l1.91-6.08C18.14,5.36,17.95,4.98,17.74,4.62z"/>
			<path class="st0" d="M18.45,6.15l-1.83,5.82l0.79,0.42l1.44-4.59C18.78,7.23,18.64,6.68,18.45,6.15z"/>
			<path class="st0" d="M18.94,8.89c0-0.15,0-0.3-0.01-0.44l-1.28,4.06l0.46,0.25C18.7,11.61,18.94,10.27,18.94,8.89z"/>
			<path class="st0" d="M16.4,2.87l-0.73,0.75l-2.1,6.7l0.79,0.42l2.37-7.54C16.61,3.09,16.51,2.98,16.4,2.87z"/>
			<polygon class="st0" points="10.66,8.77 11.29,9.11 11.75,7.65 			"/>
			<path class="st0" d="M16.92,3.44l-2.33,7.43l0.79,0.42l2.19-6.97C17.36,4.01,17.15,3.72,16.92,3.44z"/>
		</g>
	</g>
</g>
</svg>
