<svg xmlns="http://www.w3.org/2000/svg" viewBox="0 0 48.07 35.54"><g id="e7b9354a-9866-4562-a54f-789606533efb" data-name="Layer 2"><g id="b08e48f7-b7a1-45a5-84ea-7ed21b0536ed" data-name="Capa 1"><path d="M46,14.43C43.5-1.27,34.57,0,31.24,2.49S20.16,5,16.83,2.49,4.57-1.27,2.09,14.43,1.56,34.54,5.75,34.54,13,26.59,17,26.59s7-.22,7-.22,2.91.22,7,.22,7.1,8,11.3,8S48.45,30.13,46,14.43Z" fill="none" stroke="#fff" stroke-linecap="round" stroke-linejoin="round" stroke-width="2"/><path d="M42.9,33.68c-4.33,0-7.43-8.21-11.65-8.21S24,25.25,24,25.25s-3,.22-7.21.22S9.49,33.68,5.16,33.68a3.9,3.9,0,0,1-2.92-1.11,3.74,3.74,0,0,0,3.51,2C10,34.54,13,26.59,17,26.59s7-.22,7-.22,2.91.22,7,.22,7.1,8,11.3,8a3.75,3.75,0,0,0,3.51-2A3.91,3.91,0,0,1,42.9,33.68Z" fill="none" stroke="#fff" stroke-linecap="round" stroke-linejoin="round" stroke-width="2"/><path d="M16.18,3c3.63,2.7,12.07,2.7,15.71,0A8.65,8.65,0,0,1,39,1.66a7.85,7.85,0,0,0-7.72.83C27.91,5,20.16,5,16.83,2.49A7.87,7.87,0,0,0,9.1,1.66,8.67,8.67,0,0,1,16.18,3Z" fill="none" stroke="#fff" stroke-linecap="round" stroke-linejoin="round" stroke-width="2"/><circle cx="10.06" cy="9.99" r="3.87" transform="translate(-0.29 0.3) rotate(-1.67)" fill="none" stroke="#fff" stroke-linecap="round" stroke-linejoin="round" stroke-width="0.75"/><path d="M13.35,10a3.3,3.3,0,1,1-3.29-3.3A3.29,3.29,0,0,1,13.35,10Z" fill="none" stroke="#fff" stroke-linecap="round" stroke-linejoin="round" stroke-width="0.75"/><path d="M12.38,7.65a3.3,3.3,0,0,1-4.87,4.43,3.3,3.3,0,1,0,4.87-4.43Z" fill="none" stroke="#fff" stroke-linecap="round" stroke-linejoin="round" stroke-width="0.75"/><path d="M10.34,7.26A.29.29,0,1,1,10.06,7,.29.29,0,0,1,10.34,7.26Z" fill="none" stroke="#fff" stroke-linecap="round" stroke-linejoin="round" stroke-width="0.75"/><path d="M10.34,12.79a.29.29,0,0,1-.57,0,.29.29,0,1,1,.57,0Z" fill="none" stroke="#fff" stroke-linecap="round" stroke-linejoin="round" stroke-width="0.75"/><path d="M12.82,10.31A.29.29,0,1,1,13.1,10,.28.28,0,0,1,12.82,10.31Z" fill="none" stroke="#fff" stroke-linecap="round" stroke-linejoin="round" stroke-width="0.75"/><path d="M7.29,10.31a.29.29,0,0,1,0-.57.29.29,0,1,1,0,.57Z" fill="none" stroke="#fff" stroke-linecap="round" stroke-linejoin="round" stroke-width="0.75"/><path d="M21.33,18.3A4.3,4.3,0,1,1,17,14,4.31,4.31,0,0,1,21.33,18.3Z" fill="none" stroke="#fff" stroke-linecap="round" stroke-linejoin="round" stroke-width="0.75"/><path d="M20.69,18.3A3.67,3.67,0,1,1,17,14.64,3.66,3.66,0,0,1,20.69,18.3Z" fill="none" stroke="#fff" stroke-linecap="round" stroke-linejoin="round" stroke-width="0.75"/><path d="M17.76,20.82A1.79,1.79,0,0,1,19.55,19a1.72,1.72,0,0,1,.75.17,3.39,3.39,0,0,0,.12-.91,3.22,3.22,0,0,0-.16-1,1.71,1.71,0,0,1-.71.15,1.78,1.78,0,0,1-1.79-1.78,1.8,1.8,0,0,1,.12-.62,3.41,3.41,0,0,0-.85-.11,3.35,3.35,0,0,0-.85.11,1.78,1.78,0,0,1-1.67,2.4,1.72,1.72,0,0,1-.72-.15,3.52,3.52,0,0,0-.16,1,3.39,3.39,0,0,0,.13.91,1.72,1.72,0,0,1,.75-.17,1.78,1.78,0,0,1,1.78,1.78,1.69,1.69,0,0,1-.17.75,3.22,3.22,0,0,0,1.81,0A1.83,1.83,0,0,1,17.76,20.82Z" fill="none" stroke="#fff" stroke-linecap="round" stroke-linejoin="round" stroke-width="0.75"/><path d="M35.34,18.3A4.26,4.26,0,1,1,31.08,14,4.27,4.27,0,0,1,35.34,18.3Z" fill="none" stroke="#fff" stroke-linecap="round" stroke-linejoin="round" stroke-width="0.75"/><path d="M34.71,18.3a3.63,3.63,0,1,1-3.63-3.63A3.62,3.62,0,0,1,34.71,18.3Z" fill="none" stroke="#fff" stroke-linecap="round" stroke-linejoin="round" stroke-width="0.75"/><path d="M33.64,15.73a3.63,3.63,0,0,1-2.81,5.93,3.61,3.61,0,0,1-2.55-1.05,3.63,3.63,0,1,0,5.36-4.88Z" fill="none" stroke="#fff" stroke-linecap="round" stroke-linejoin="round" stroke-width="0.75"/><path d="M31.39,15.31a.31.31,0,1,1-.31-.32A.31.31,0,0,1,31.39,15.31Z" fill="none" stroke="#fff" stroke-linecap="round" stroke-linejoin="round" stroke-width="0.75"/><path d="M31.39,21.39a.31.31,0,0,1-.62,0,.31.31,0,0,1,.62,0Z" fill="none" stroke="#fff" stroke-linecap="round" stroke-linejoin="round" stroke-width="0.75"/><path d="M34.12,18.66a.32.32,0,1,1,.31-.31A.31.31,0,0,1,34.12,18.66Z" fill="none" stroke="#fff" stroke-linecap="round" stroke-linejoin="round" stroke-width="0.75"/><circle cx="28.04" cy="18.35" r="0.31" fill="none" stroke="#fff" stroke-linecap="round" stroke-linejoin="round" stroke-width="0.75"/><path d="M36.32,10.26a2,2,0,1,1-2-2A2,2,0,0,1,36.32,10.26Z" fill="none" stroke="#fff" stroke-linecap="round" stroke-linejoin="round" stroke-width="0.75"/><path d="M35.94,10.26a1.61,1.61,0,1,1-1.6-1.61A1.6,1.6,0,0,1,35.94,10.26Z" fill="none" stroke="#fff" stroke-linecap="round" stroke-linejoin="round" stroke-width="0.75"/><path d="M43.51,10.26a2,2,0,1,1-2-2A2,2,0,0,1,43.51,10.26Z" fill="none" stroke="#fff" stroke-linecap="round" stroke-linejoin="round" stroke-width="0.75"/><circle cx="41.52" cy="10.26" r="1.61" fill="none" stroke="#fff" stroke-linecap="round" stroke-linejoin="round" stroke-width="0.75"/><path d="M37.93,8.65a2,2,0,1,1,2-2A2,2,0,0,1,37.93,8.65Z" fill="none" stroke="#fff" stroke-linecap="round" stroke-linejoin="round" stroke-width="0.75"/><path d="M37.93,8.27a1.61,1.61,0,1,1,1.61-1.61A1.61,1.61,0,0,1,37.93,8.27Z" fill="none" stroke="#fff" stroke-linecap="round" stroke-linejoin="round" stroke-width="0.75"/><path d="M37.93,15.83a2,2,0,1,1,2-2A2,2,0,0,1,37.93,15.83Z" fill="none" stroke="#fff" stroke-linecap="round" stroke-linejoin="round" stroke-width="0.75"/><path d="M37.93,15.46a1.61,1.61,0,1,1,1.61-1.61A1.61,1.61,0,0,1,37.93,15.46Z" fill="none" stroke="#fff" stroke-linecap="round" stroke-linejoin="round" stroke-width="0.75"/></g></g></svg>