<?xml version="1.0" encoding="utf-8"?>
<!-- Generator: Adobe Illustrator 24.0.1, SVG Export Plug-In . SVG Version: 6.00 Build 0)  -->
<svg version="1.1" id="Capa_1" xmlns="http://www.w3.org/2000/svg" xmlns:xlink="http://www.w3.org/1999/xlink" x="0px" y="0px"
	 viewBox="0 0 100 100" style="enable-background:new 0 0 100 100;" xml:space="preserve">
<style type="text/css">
	.st0{fill:#FFFFFF;}
	.st1{fill:#D6CBB9;}
	.st2{fill:none;stroke:#FFFFFF;stroke-width:2;stroke-miterlimit:10;}
	.st3{fill:#D90024;}
	.st4{fill:none;stroke:#FFFFFF;stroke-width:3;stroke-linecap:round;stroke-linejoin:round;stroke-miterlimit:10;}
	.st5{fill:none;stroke:#FFFFFF;stroke-width:0.6481;stroke-linecap:round;stroke-linejoin:round;stroke-miterlimit:10;}
	.st6{fill:#F9F9F9;}
	.st7{fill:#E8E8E8;}
	.st8{fill:none;stroke:#FBDD65;stroke-width:2;stroke-miterlimit:10;}
	.st9{fill:#FBDD65;}
	.st10{fill:none;stroke:#4CC3A2;stroke-width:3;stroke-linecap:round;stroke-linejoin:round;stroke-miterlimit:10;}
	.st11{clip-path:url(#SVGID_2_);}
	.st12{fill:#727272;}
	.st13{fill:none;stroke:#D6CBB9;stroke-width:2;stroke-miterlimit:10;}
	.st14{fill:#D3264B;}
	.st15{fill:#757575;}
	.st16{fill:#6B9DBF;}
	.st17{fill:#88BDDA;}
	.st18{fill:#F2F7FB;stroke:#C4C4C4;stroke-linecap:round;stroke-linejoin:round;stroke-miterlimit:10;stroke-dasharray:12;}
	.st19{fill:#C6C6C6;}
	.st20{opacity:0.31;fill:#494949;}
	.st21{fill:none;stroke:#88BDDA;stroke-width:3;stroke-linecap:round;stroke-linejoin:round;stroke-miterlimit:10;}
	.st22{fill:none;stroke:#C1C1C1;stroke-miterlimit:10;}
	.st23{fill:none;stroke:#C1C1C1;stroke-width:2;stroke-miterlimit:10;}
	.st24{fill:none;stroke:#FFFFFF;stroke-width:0.96;stroke-miterlimit:10;}
	.st25{fill:none;stroke:#88BDDA;stroke-width:5;stroke-linecap:round;stroke-linejoin:round;stroke-miterlimit:10;}
	.st26{fill:none;stroke:#A8A8A8;stroke-miterlimit:10;}
	.st27{fill:#EFEFEF;}
	.st28{fill:#F9F9F9;stroke:#D1D1D1;stroke-miterlimit:10;}
	.st29{fill:#FFFFFF;stroke:#D1D1D1;stroke-miterlimit:10;}
	.st30{fill:none;stroke:#828282;stroke-width:1.5932;stroke-linecap:round;stroke-linejoin:round;stroke-miterlimit:10;}
	.st31{fill:none;stroke:#4562CC;stroke-miterlimit:10;}
	.st32{fill:none;stroke:#4562CC;stroke-width:3.1933;stroke-linecap:round;stroke-linejoin:round;stroke-miterlimit:10;}
	.st33{opacity:0.22;}
	.st34{opacity:0.3;}
	.st35{fill:#1C1C1B;}
	.st36{fill:#B4B4B4;}
	.st37{fill:#3C3C3A;}
	.st38{fill:#707070;}
	.st39{fill:none;stroke:#325975;stroke-width:3.3;stroke-linecap:round;stroke-linejoin:round;stroke-miterlimit:10;}
	.st40{fill:#F29BB4;}
	.st41{fill:#EF82A2;}
	.st42{fill:none;stroke:#325975;stroke-width:2.75;stroke-linecap:round;stroke-linejoin:round;stroke-miterlimit:10;}
	.st43{fill:#F7C3D2;}
	.st44{fill:none;stroke:#CECECE;stroke-miterlimit:10;}
	.st45{clip-path:url(#SVGID_4_);fill:#B5BEC9;}
	.st46{clip-path:url(#SVGID_4_);fill:#D90024;}
	.st47{clip-path:url(#SVGID_6_);fill:#B5BEC9;}
	.st48{clip-path:url(#SVGID_6_);fill:#D90024;}
</style>
<g>
	<path class="st0" d="M1.4,38.13c0.18-0.26,0.4-0.5,0.66-0.67c2.49-1.76,5.03-1.76,6.98-0.73c0.44,0.23,0.92,0.09,1.21-0.26
		l0.01-9.99c0-0.56,0.43-1.02,0.97-1.04l0.33-0.06l9.02,0.04c0.65-0.11,1.07-0.84,0.75-1.47c-0.45-0.88-0.7-1.89-0.7-2.95
		c0-3.6,2.88-6.5,6.39-6.4c3.51-0.07,6.38,2.84,6.36,6.44c-0.01,1.06-0.26,2.07-0.71,2.95c-0.32,0.63,0.09,1.36,0.75,1.47l9.01,0.01
		l0.33,0.06c0.54,0.02,0.97,0.49,0.97,1.05l-0.04,9.99c0.28,0.35,0.77,0.49,1.21,0.27c1.96-1.02,4.5-1,6.98,0.77
		c0.25,0.18,0.48,0.42,0.66,0.68c3.44,5.18-0.08,10.71-4.86,10.7c-1.01,0-1.96-0.25-2.8-0.69c-0.45-0.24-0.96-0.05-1.24,0.33
		L43.6,58.65l-0.06,0.28c-0.24-0.18-0.52-0.29-0.84-0.3v0c-0.11-0.03-0.22-0.06-0.35-0.06l-8.95,0.02
		c-0.23-0.05-0.41-0.28-0.41-0.51l0.05-0.22l0.01-0.02l0.02-0.05c0.46-0.93,0.73-1.99,0.73-3.11v-0.01c0-0.7-0.13-1.35-0.3-1.96
		c-0.82-2.85-3.37-4.97-6.44-4.97l-0.14,0l-0.16,0c-3.07,0-5.62,2.11-6.44,4.97c-0.17,0.61-0.31,1.26-0.31,1.96v0.02v0.01v0.03h0
		c0.01,1.1,0.27,2.14,0.73,3.07l0.01,0.03l0.01,0.02l0.01,0.02l0.05,0.22c0,0.22-0.18,0.45-0.41,0.5l-8.95-0.02
		c-0.13,0-0.24,0.04-0.35,0.06v0c-0.31,0.01-0.6,0.12-0.83,0.29c-0.04-0.11-0.07-0.23-0.07-0.36l0.01-10.06
		c-0.27-0.38-0.78-0.57-1.23-0.33c-0.84,0.44-1.8,0.68-2.81,0.68C1.43,48.84-2.07,43.29,1.4,38.13z"/>
	<path class="st0" d="M43.18,92.19c0,0.3-0.24,0.53-0.5,0.53l-9.44-0.02l-0.11-0.02l-0.04-0.01h-0.09c-0.15,0-0.25-0.05-0.33-0.14
		c-0.08-0.09-0.14-0.23-0.14-0.37l0.09-0.31c0.66-1.07,1.04-2.34,1.04-3.7c0-1.43-0.42-2.95-1.37-4.43l-0.02-0.02l-0.02-0.02
		c-0.41-0.5-0.89-0.94-1.42-1.3l-0.01-0.01l-0.01-0.01c-1.26-0.76-2.56-1.11-3.78-1.14h-0.01h0c-1.22,0.02-2.52,0.38-3.78,1.14
		l-0.01,0.01l-0.01,0.01c-0.53,0.36-1.01,0.8-1.43,1.3l-0.02,0.02l-0.02,0.03c-0.95,1.48-1.37,3-1.37,4.43
		c0,1.36,0.38,2.63,1.05,3.7l0.09,0.31c0,0.14-0.05,0.28-0.13,0.37c-0.09,0.09-0.18,0.14-0.33,0.14h-0.05h-0.04l-0.15,0.02
		l-9.44,0.02c-0.27,0-0.5-0.23-0.5-0.53l-0.02-10.22l-0.1-0.14c-0.28-0.39-0.72-0.65-1.23-0.65c-0.22,0-0.45,0.05-0.66,0.16
		c-0.77,0.4-1.64,0.63-2.56,0.63H6.27c-3.13-0.01-5.69-2.64-5.69-5.9c0-1.27,0.38-2.64,1.3-4.01c0.14-0.21,0.32-0.4,0.53-0.54
		c1.34-0.95,2.67-1.34,3.88-1.34c0.92,0,1.79,0.23,2.56,0.63c0.22,0.12,0.45,0.17,0.68,0.17c0.46,0,0.88-0.22,1.16-0.56l0.12-0.15
		L10.79,60.1c0-0.3,0.23-0.52,0.48-0.53l0.08,0l0.07-0.03l0.08-0.02l0.07-0.01l9.06,0.02l0.04-0.01c0.71-0.13,1.2-0.72,1.26-1.4
		l0.02-0.12c0-0.21-0.05-0.43-0.15-0.64l0,0l-0.01-0.03l-0.01-0.02l-0.01-0.02c-0.4-0.81-0.64-1.71-0.64-2.68v-0.02v0
		c0-0.24,0.03-0.48,0.06-0.72c0.05-0.32,0.11-0.63,0.2-0.95c0.37-1.3,1.16-2.39,2.2-3.15c0.92-0.67,2.03-1.07,3.24-1.07l0.14,0h0.01
		h0.01l0.13,0c2.58,0,4.74,1.78,5.45,4.22c0.16,0.55,0.26,1.1,0.26,1.67v0.01c0,0.97-0.23,1.88-0.63,2.69l-0.01,0.02l-0.02,0.05h0
		c-0.1,0.21-0.15,0.43-0.15,0.64l0.03,0.14c0.07,0.68,0.55,1.26,1.26,1.39l0.04,0.01l9.06-0.02l0.15,0.03l0.07,0.03l0.08,0
		l0.03,0.01c0.24,0.03,0.44,0.24,0.44,0.52l-0.01,9.1c-0.17-0.02-0.34-0.02-0.5-0.02c-0.34,0-0.68,0.03-1.02,0.08
		c-0.33-0.06-0.69-0.13-1.1-0.13v0.5l0-0.5c-1.69,0.01-3.22,0.65-4.4,1.7c-1.43,1.27-2.33,3.14-2.33,5.23
		c0,0.45,0.06,0.91,0.14,1.38c0.05,0.25,0.1,0.51,0.18,0.76c0.24,0.82,0.61,1.64,1.15,2.45c0.21,0.32,0.48,0.59,0.79,0.81l0.16,0.1
		c1.43,0.97,2.9,1.41,4.28,1.41c0.34,0,0.68-0.04,1.01-0.08c0.26,0.04,0.57,0.13,0.96,0.13h0c0.23,0,0.45-0.02,0.66-0.05
		L43.18,92.19z"/>
	<path class="st0" d="M81.39,82.62c-1.01,0-1.96-0.25-2.8-0.69c-0.45-0.24-0.96-0.05-1.24,0.33l-0.04,10.06
		c0,0.58-0.46,1.05-1.02,1.05l-9.47-0.04l-0.15-0.02h-0.05c-0.81,0-1.25-0.92-0.82-1.62c1.26-2.03,1.44-4.83-0.3-7.58
		c-0.38-0.47-0.82-0.87-1.31-1.21c-1.19-0.72-2.39-1.05-3.52-1.07c-1.13,0.01-2.33,0.34-3.53,1.05c-0.49,0.34-0.94,0.74-1.32,1.2
		c-1.76,2.74-1.6,5.54-0.35,7.57c0.44,0.7-0.01,1.62-0.82,1.62h-0.06l-0.14,0.02l-9.48-0.01c-0.4,0-0.74-0.25-0.91-0.59
		c0.03-0.13,0.05-0.26,0.05-0.39l0.02-10.47l-0.45,0.09c-0.27-0.18-0.63-0.24-0.96-0.07c-0.16,0.08-0.32,0.15-0.48,0.21
		c-0.19-0.02-0.4-0.06-0.66-0.11l-0.08-0.01l-0.08,0.02c-0.31,0.05-0.63,0.08-0.96,0.08c-1.21,0-2.52-0.38-3.84-1.32
		c-0.2-0.14-0.39-0.33-0.53-0.54c-0.16-0.25-0.29-0.49-0.42-0.74c-0.6-1.13-0.88-2.24-0.88-3.28c0-0.26,0.02-0.51,0.05-0.76
		c0.36-2.9,2.76-5.13,5.65-5.14c0.31,0,0.62,0.06,0.98,0.12l0.08,0.01l0.08-0.01c0.32-0.05,0.64-0.07,0.94-0.07l0.17,0.08
		c0.28,0.15,0.57,0.13,0.83,0.02l0.57,0.11l0.02-10.32c0-0.18-0.03-0.35-0.09-0.5c0.16-0.34,0.49-0.59,0.87-0.6l0.32-0.06l9.02,0.04
		c0.65-0.11,1.07-0.84,0.75-1.47c-0.45-0.88-0.7-1.89-0.7-2.95c0-3.6,2.88-6.5,6.39-6.4c3.51-0.07,6.37,2.84,6.36,6.44
		c-0.01,1.06-0.26,2.07-0.71,2.95c-0.32,0.63,0.09,1.36,0.74,1.47l9.01,0.01l0.33,0.06c0.54,0.02,0.97,0.49,0.97,1.05L77.4,70.2
		c0.28,0.34,0.77,0.49,1.21,0.27c1.96-1.02,4.5-1,6.98,0.77c0.25,0.18,0.48,0.42,0.66,0.68C89.69,77.09,86.16,82.62,81.39,82.62z"/>
	<path class="st0" d="M99.67,31.14l-7.23,6.89c-0.05,0.44,0.18,0.9,0.65,1.05c2.09,0.71,3.84,2.55,4.28,5.57
		c0.05,0.31,0.03,0.63-0.03,0.94c-1.35,6.07-7.78,7.36-11.08,3.91c-0.7-0.73-1.18-1.59-1.44-2.5c-0.14-0.49-0.63-0.73-1.09-0.67
		l-7.28,6.94c-0.42,0.4-1.07,0.39-1.46-0.01l-6.53-6.86l-0.09-0.12l-0.04-0.04c-0.56-0.58-0.21-1.54,0.6-1.71
		c2.34-0.49,4.48-2.31,5.26-5.47c0.07-0.6,0.06-1.2-0.04-1.78c-0.3-1.36-0.9-2.45-1.67-3.28c-0.79-0.81-1.86-1.45-3.2-1.82
		c-0.58-0.12-1.18-0.16-1.78-0.12c-3.19,0.63-5.1,2.69-5.7,5c-0.2,0.8-1.18,1.11-1.73,0.53l-0.04-0.04l-0.12-0.09l-6.56-6.84
		c-0.39-0.4-0.37-1.06,0.05-1.46l7.25-6.96c0.09-0.46-0.13-0.96-0.61-1.12c-0.9-0.3-1.74-0.82-2.43-1.55
		C54.3,16.08,55.87,9.71,62,8.63c0.31-0.05,0.64-0.05,0.94,0.01c2.99,0.58,4.75,2.41,5.37,4.53c0.14,0.48,0.58,0.73,1.03,0.7
		l7.21-6.92c0.41-0.39,1.04-0.39,1.43-0.02l0.27,0.19l6.22,6.53c0.53,0.39,1.35,0.19,1.58-0.48c0.33-0.93,0.88-1.81,1.64-2.55
		c2.6-2.49,6.68-2.42,9.05,0.17c2.48,2.48,2.37,6.56-0.23,9.04c-0.77,0.73-1.67,1.24-2.62,1.53c-0.67,0.2-0.92,1.01-0.55,1.56
		l6.24,6.5l0.18,0.28C100.11,30.12,100.08,30.75,99.67,31.14z"/>
</g>
</svg>
