<svg xmlns="http://www.w3.org/2000/svg" viewBox="0 0 35.25 38.47"><g id="ba2550e3-f4a4-4f90-8cbf-3e9bf51d4b4a" data-name="Layer 2"><g id="f8eb77c9-9b75-4ebf-bdd1-641e192efe16" data-name="Capa 1"><path d="M34.91,24.71a10,10,0,0,0-1.85-2.8,25,25,0,0,0-2.9-2.71c.26-.2.51-.41.75-.62A18.17,18.17,0,0,0,34,15.28a7.88,7.88,0,0,0,.89-1.58,4.22,4.22,0,0,0,.33-1.58,2.76,2.76,0,0,0-.28-1.26,2.7,2.7,0,0,0-.79-1,4.49,4.49,0,0,0-1.75-.82,9.76,9.76,0,0,0-2.24-.23,25.62,25.62,0,0,0-6.69,1.09A34.68,34.68,0,0,0,22.54,6a14.69,14.69,0,0,0-1.95-4.2A5.52,5.52,0,0,0,19.28.52,2.89,2.89,0,0,0,16,.52a6.89,6.89,0,0,0-2.12,2.63A25.5,25.5,0,0,0,11.77,10,26.61,26.61,0,0,0,5.11,8.88a8.56,8.56,0,0,0-2.91.44,3.76,3.76,0,0,0-1.13.62A2.79,2.79,0,0,0,0,12.18a4.24,4.24,0,0,0,.34,1.58,10,10,0,0,0,1.86,2.8,24.86,24.86,0,0,0,2.89,2.71c-.25.2-.51.41-.75.62a18.88,18.88,0,0,0-3.09,3.3,8.1,8.1,0,0,0-.88,1.58A4.24,4.24,0,0,0,0,26.35a2.9,2.9,0,0,0,.28,1.26,2.81,2.81,0,0,0,.79,1,4.47,4.47,0,0,0,1.76.82,9.7,9.7,0,0,0,2.24.23,25.75,25.75,0,0,0,6.69-1.09,30.82,30.82,0,0,0,.93,3.91,14.17,14.17,0,0,0,1.95,4.2A5.13,5.13,0,0,0,16,38a2.89,2.89,0,0,0,3.31,0,6.71,6.71,0,0,0,2.12-2.63,24.68,24.68,0,0,0,2.08-6.8,26.61,26.61,0,0,0,6.66,1.07,8.62,8.62,0,0,0,2.92-.44,4.28,4.28,0,0,0,1.13-.62,3,3,0,0,0,.79-1,2.7,2.7,0,0,0,.27-1.24A4,4,0,0,0,34.91,24.71ZM2.72,14.29A5.92,5.92,0,0,1,2,13.07a2.34,2.34,0,0,1-.21-.89,1,1,0,0,1,.39-.81,2.64,2.64,0,0,1,1.06-.47,7.85,7.85,0,0,1,1.83-.19,24.82,24.82,0,0,1,6.38,1.06c-.15,1.09-.26,2.22-.35,3.4a52.24,52.24,0,0,0-4.56,2.94c-.37-.29-.72-.58-1-.86A17,17,0,0,1,2.72,14.29ZM11,21.14c-1-.62-2-1.26-2.9-1.89h0C9,18.62,10,18,11,17.36c0,.61,0,1.24,0,1.87S11,20.51,11,21.14ZM5.1,27.81a6.64,6.64,0,0,1-2.25-.32,2.07,2.07,0,0,1-.6-.32,1,1,0,0,1-.39-.82,2.42,2.42,0,0,1,.21-.9,8.18,8.18,0,0,1,1.52-2.27,23.84,23.84,0,0,1,3-2.77l.77.55c1.16.8,2.43,1.59,3.79,2.36.08,1.18.2,2.32.35,3.41A24.44,24.44,0,0,1,5.1,27.81Zm17.09-13.7-1.7-.85L20,13c.69-.26,1.37-.5,2-.73C22.06,12.88,22.13,13.49,22.19,14.11ZM14.46,6.55A12.93,12.93,0,0,1,16.14,2.9,3.74,3.74,0,0,1,17,2.05a1.06,1.06,0,0,1,1.29,0A5.1,5.1,0,0,1,19.77,4a23.72,23.72,0,0,1,1.94,6.47h0c-1.32.43-2.69.94-4.1,1.53-1.39-.58-2.76-1.08-4.07-1.5A32.71,32.71,0,0,1,14.46,6.55Zm-1.2,5.76c.66.22,1.33.45,2,.71l-.53.25c-.57.28-1.13.56-1.68.85C13.12,13.5,13.19,12.9,13.26,12.31Zm-.19,12c.55.29,1.12.57,1.7.85h0l.53.25c-.69.26-1.37.5-2,.73C13.19,25.59,13.12,25,13.07,24.36Zm7.72,7.56a12.93,12.93,0,0,1-1.68,3.65,3.37,3.37,0,0,1-.84.85,1.06,1.06,0,0,1-1.29,0,5.17,5.17,0,0,1-1.5-1.94A23.22,23.22,0,0,1,13.55,28h0c1.32-.43,2.69-.94,4.09-1.53,1.4.58,2.76,1.08,4.07,1.5A30.9,30.9,0,0,1,20.79,31.92ZM22,26.16c-.66-.22-1.33-.45-2-.71l.53-.25c.57-.28,1.13-.56,1.68-.85C22.13,25,22.07,25.57,22,26.16Zm.35-4c-.84.47-1.72.92-2.63,1.36-.69.34-1.38.65-2.07.95-.69-.29-1.38-.61-2.08-.94-.92-.44-1.8-.89-2.65-1.36-.05-1-.08-1.95-.08-3s0-2,.08-2.95c.85-.47,1.72-.92,2.63-1.36.7-.34,1.39-.65,2.08-.95.68.29,1.38.61,2.08.94q1.36.66,2.64,1.35c.05,1,.08,2,.08,3S22.39,21.23,22.34,22.19Zm7.82-11.53A6.53,6.53,0,0,1,32.4,11a2.07,2.07,0,0,1,.6.32.94.94,0,0,1,.29.36.92.92,0,0,1,.1.46,2.59,2.59,0,0,1-.2.9,8.66,8.66,0,0,1-1.52,2.27,23.84,23.84,0,0,1-3,2.77c-.26-.18-.51-.37-.78-.55-1.16-.8-2.43-1.59-3.78-2.36-.09-1.18-.2-2.32-.35-3.41A24.31,24.31,0,0,1,30.16,10.66Zm-5.94,6.67c1,.63,2,1.26,2.9,1.89h0c-.89.63-1.86,1.27-2.9,1.9q0-.93,0-1.89C24.25,18.59,24.24,18,24.22,17.33Zm9.11,9.41a.9.9,0,0,1-.3.36,2.58,2.58,0,0,1-1.05.47,7.94,7.94,0,0,1-1.84.18,24.32,24.32,0,0,1-6.38-1.05c.15-1.09.27-2.22.35-3.4a50.77,50.77,0,0,0,4.56-2.94c.37.29.73.58,1.06.86a16.88,16.88,0,0,1,2.8,3,6.49,6.49,0,0,1,.69,1.21,2.59,2.59,0,0,1,.2.9A1,1,0,0,1,33.33,26.74Z" fill="#fff"/><path d="M15.06,18.63a2.45,2.45,0,0,0,3,3,2.42,2.42,0,0,0,1.76-1.76,2.45,2.45,0,0,0-3-3A2.42,2.42,0,0,0,15.06,18.63Z" fill="#fff"/></g></g></svg>