<svg xmlns="http://www.w3.org/2000/svg" viewBox="0 0 27.65 41.76"><g id="f425ce8b-89d5-4a3a-80de-cdad23d97242" data-name="Layer 2"><g id="f14c5ddf-5f91-43cd-87e3-2c22c96461ac" data-name="Capa 1"><path d="M19.35,25.64C26.5,16,30.52,4.86,17.27.4l.15.14a.9.9,0,0,0-.36-.19A13,13,0,0,0,14.16,0a14.39,14.39,0,0,0-3,.35.87.87,0,0,0-.37.19L10.92.4C-2.32,4.86,1.69,16,8.85,25.64L0,31.64,2.71,41.76A99.94,99.94,0,0,0,14.1,32a127.51,127.51,0,0,0,10.19,9.55l3.36-10.26S22.87,28.27,19.35,25.64Zm-4.81-4.26S6.2,15.43,6.2,7.08c0,0,8.34-4.76,15.49,0C21.69,7.08,22.89,13,14.54,21.38Z" fill="#fff"/></g></g></svg>