<svg xmlns="http://www.w3.org/2000/svg" viewBox="0 0 41.72 41.62"><g id="b7edef8d-66cb-431f-a577-7c968c95fe94" data-name="Layer 2"><g id="a9f6a42c-e5d9-48ad-a117-bd49b542cf88" data-name="Capa 1"><path d="M4.85,22.7l6.59-6.59L2.71,14.72v0A2.22,2.22,0,0,0,.65,18.49l0,0h0Z" fill="#fff"/><path d="M26.81,38.57l-1.32-8.36-6.57,6.56,4,4,0,0a1.2,1.2,0,0,0,.17.21,2.22,2.22,0,0,0,3.63-2.41Z" fill="#fff"/><path d="M20.48,19.31a1.58,1.58,0,0,0-1.12-.47,1.56,1.56,0,0,0-1.13.47l-3.37,3.36-.51.51a1.61,1.61,0,0,0-.46,1.13,1.59,1.59,0,0,0,.46,1.13l1.84,1.83a1.58,1.58,0,0,0,1.12.47,1.64,1.64,0,0,0,1.13-.47l3.88-3.88a1.59,1.59,0,0,0,.46-1.13,1.55,1.55,0,0,0-.47-1.12Z" fill="#fff"/><path d="M41.09.62a2.17,2.17,0,0,0-2-.56h0a1.6,1.6,0,0,0-.31.1L24.83,4.75a2.58,2.58,0,0,0-1.33.68l-9.87,9.86-7.09,7.1-1.2,1.2a2.69,2.69,0,0,0,0,3.8L7,29l-.41.8L11.75,35l.8-.4,1.68,1.67a2.7,2.7,0,0,0,3.81,0l1.2-1.2L26.29,28l9.9-9.89a2.61,2.61,0,0,0,.55-.83l0,0L41.52,3.05a2.14,2.14,0,0,0,.15-.47h0A2.14,2.14,0,0,0,41.09.62ZM22.81,23.89l-3.88,3.88a2.3,2.3,0,0,1-3.24,0l-1.83-1.84a2.28,2.28,0,0,1,0-3.24l.51-.51,3.36-3.37a2.29,2.29,0,0,1,3.25,0l1.83,1.83A2.29,2.29,0,0,1,22.81,23.89Zm8.4-7.71a4.13,4.13,0,1,1,0-6.71A4.14,4.14,0,0,1,31.21,16.18Z" fill="#fff"/></g></g></svg>