<svg xmlns="http://www.w3.org/2000/svg" viewBox="0 0 45.36 34.04"><g id="a1d4c215-f80c-479e-815b-f617469cf0ab" data-name="Layer 2"><g id="a1a6348d-0445-4c35-a85c-31aeccd56641" data-name="Capa 1"><path d="M8.29,24.78s0,0,0,0a1.31,1.31,0,0,1,.09.17.86.86,0,0,1,.06.23.43.43,0,0,1-.06.26.64.64,0,0,1-.36.23H8a1.71,1.71,0,0,1-.5-.24A2.49,2.49,0,0,1,7,25.08a2.22,2.22,0,0,1-.42-.64l0-.1v0l0-.06,0-.1a.24.24,0,0,1,0-.08l0-.17,0-.16,0-.16A17,17,0,0,1,6.24,21c0-.21,0-.44,0-.65l0-.63c0-.42,0-.85,0-1.28,0-.87,0-1.75,0-2.64,0-1.79.09-3.62.14-5.49l0-1.4c0-.47,0-1,0-1.42V6.06c0-.24,0-.48,0-.75a3,3,0,0,1,.15-.84,1.65,1.65,0,0,1,.59-.83l.2-.13.2-.1.21-.09.21-.06a6,6,0,0,1,1.61-.13l.75,0,.36,0h.35l1.5,0,1.51,0,1.5,0c1,.05,2,.05,3,.07l3.06,0,3.08.07L31,3.67l3.09.09,1.54,0,.79,0,.41,0,.2,0,.1,0,.11,0a2,2,0,0,1,.48.14,1.57,1.57,0,0,1,.47.32,1.51,1.51,0,0,1,.3.49,2.39,2.39,0,0,1,.13.47,6.19,6.19,0,0,1,.05.84V7c0,.51,0,1,0,1.54V10c0,1,0,2,0,3s0,2,0,3c0,.49,0,1,0,1.48l0,1.48c0,.25,0,.49,0,.74l0,.73-.07,1.46v.35c0,.12,0,.23,0,.35s0,.47,0,.71,0,.49,0,.75a3.66,3.66,0,0,1-.15.82,2.13,2.13,0,0,1-.21.43,1.85,1.85,0,0,1-.32.37,2.07,2.07,0,0,1-.81.41,4.81,4.81,0,0,1-.79.13h-.75l-2.75-.09c-.9,0-1.79-.07-2.66-.05H24.91l-2.44,0L20.11,26,19,26h-1.1l-2.16,0h-1l-1,0-1.13,0h-.84l-.89-.08c-.25,0-.54-.06-.83-.1a6.81,6.81,0,0,1-.85-.15c-.9-.18-1.15-.32-1-.4a2.84,2.84,0,0,1,1.11-.14s.12,0,.36,0l.91,0L11.82,25h.4l1.2,0c1.22.05,2.51.05,3.89,0h2.15l2.22.05c.75,0,1.53,0,2.32,0s1.59,0,2.4,0h4.42l.66,0,2.65.08,1.34,0h.64a2.7,2.7,0,0,0,.58-.08,1.33,1.33,0,0,0,.45-.19.76.76,0,0,0,.25-.33,3.5,3.5,0,0,0,.14-1.19c0-.45,0-.94,0-1.43l.06-1.41c0-.47,0-.95.06-1.42l0-1.44c0-.48,0-1,0-1.44V14.87c0-1,0-2,0-2.95s0-2,0-3l0-1.5V6.68c0-.25,0-.5,0-.73a2.84,2.84,0,0,0-.08-.63.85.85,0,0,0-.09-.19A.47.47,0,0,0,37.42,5a.91.91,0,0,0-.22-.09l-.31,0c-.24,0-.48-.06-.72-.07l-.75,0-.76,0-1.52,0-3-.08-3.06-.09-1.52,0L24,4.48l-3-.06-3,0-1.5,0L15,4.28c-1,0-2-.06-3-.08h-.73c-.24,0-.51,0-.76,0a13.66,13.66,0,0,0-1.41,0,4.18,4.18,0,0,0-.64.07l-.28.08a.67.67,0,0,0-.12.06L8,4.39a.63.63,0,0,0-.17.13.54.54,0,0,0-.11.18,1.48,1.48,0,0,0-.12.53c0,.21,0,.44,0,.68V8c0,.23,0,.47,0,.7v.71l0,1.39c0,.92,0,1.84-.07,2.74s0,1.79-.07,2.67,0,1.74,0,2.6l0,1.29v.32l0,.31c0,.2,0,.4,0,.6q0,.61,0,1.2c0,.2,0,.39,0,.59s.05.38.09.55l0,.13s0,0,0,.06l0,.05V24l0,0a1.48,1.48,0,0,0,.51.58A1.2,1.2,0,0,0,8.29,24.78Z" fill="none" stroke="#fff" stroke-linecap="round" stroke-linejoin="round"/><path d="M34,29.18s0,0-.06,0c-.22-.14-.53-.5,0-.93l.08,0,1.51,0h.17c.26,0,.51,0,.77,0l1.57,0h1.61a5.8,5.8,0,0,0,.74,0,1.18,1.18,0,0,0,.53-.18.74.74,0,0,0,.24-.42,1.53,1.53,0,0,0,.05-.32l0-.41c0-.28,0-.55,0-.83s0-.55,0-.83l0-1.69c0-.57,0-1.15,0-1.73l0-1.75.06-1.77c0-.59,0-1.18,0-1.78l0-1.79c0-.6,0-1.2,0-1.8s0-1.23,0-1.85c0-.31,0-.61,0-.92V7.24c0-.65.08-1.27.1-1.89a9.77,9.77,0,0,0,0-1.8l-.08-.42a1.9,1.9,0,0,0-.12-.36,1.18,1.18,0,0,0-.44-.5,3.35,3.35,0,0,0-1.6-.35l-1,0-1,0-1.93-.06-1.94,0-3.9.06-1,0-1,0-2,0c-2.63-.08-5.24-.1-7.9-.15l-2-.06-2-.05-1,0H9.84l-2,.05-1,0h-1a2.55,2.55,0,0,0-.81.13,1.58,1.58,0,0,0-.35.16L4.6,2l-.08.06-.06.05a.92.92,0,0,0-.17.25l-.06.16c0,.07,0,.12,0,.19a6.05,6.05,0,0,0,0,.88v.51c0,.08,0,.18,0,.25v.71c0,.15,0,.31,0,.47l0,1,0,1c0,.65,0,1.31,0,1.94s0,1.27,0,1.91c0,1.26,0,2.52,0,3.77,0,.63,0,1.25,0,1.87s0,1.24,0,1.85q0,1.84,0,3.66c0,.61,0,1.21,0,1.8v.9c0,.3,0,.6,0,.89a3.77,3.77,0,0,0,.07.78l0,.09,0,.07s0,.05,0,.07l0,.06a1.05,1.05,0,0,0,.07.11l.09.08a1.12,1.12,0,0,0,.57.21l.18,0,.2,0,.43,0,3.43.14,3.32.1,3.24.09,6.13.18,2.89.08h7.64l.89.09c.5,0,1.14.1,1.67.18,1.79.21,1.09.43,0,.55.06,0-.61.05-1.29.1l-.94.05-.44,0L20.06,29l-6-.17-3.19-.1-1.64-.05-1.65-.07-1.68-.07-.42,0-.24,0H5.07l-.13,0a2,2,0,0,1-.24,0l-.26-.08a1.51,1.51,0,0,1-.26-.12,1.38,1.38,0,0,1-.25-.17,1.52,1.52,0,0,1-.22-.22,1.38,1.38,0,0,1-.17-.25,1.59,1.59,0,0,1-.12-.27l0-.13a.5.5,0,0,1,0-.13,5.49,5.49,0,0,1-.1-.95c0-.3,0-.59,0-.88v-.87q0-3.51-.07-7.16t.07-7.41V8.84c0-.32,0-.62,0-.93s0-.62,0-.93l0-.47V6c0-.32,0-.64,0-1V4.57c0-.16,0-.34,0-.48s0-.6,0-.95A3.49,3.49,0,0,1,3.35,2a2.29,2.29,0,0,1,.33-.56l.12-.12.12-.1.23-.17A2.67,2.67,0,0,1,5.22.67a5.61,5.61,0,0,1,1-.07l1,0,1.92,0c.65,0,1.29,0,1.94,0h2L15,.55c.65,0,1.3,0,1.95.06l1,0,1,0,3.9.06c1.3,0,2.6.08,3.89.1l1.93,0,1.92,0,1.94,0c.32,0,.65,0,1,0h1l1,0,1,0,1.91.07c.32,0,.63,0,.95,0a7.33,7.33,0,0,1,1,.1,3.33,3.33,0,0,1,1,.35,2.24,2.24,0,0,1,.85.85,2.41,2.41,0,0,1,.21.54c0,.09,0,.18.07.26l0,.26,0,.12v.13l0,.25a4.18,4.18,0,0,1,0,.5c0,.66,0,1.29-.06,1.91,0,.31,0,.61-.05.91s0,.3,0,.46V9.85c0,.61,0,1.22,0,1.82s0,1.2,0,1.81v.91c0,.31,0,.6,0,.9s0,.6,0,.9,0,.6,0,.89l-.06,1.76,0,.88c0,.29,0,.57,0,.86,0,1.14,0,2.28,0,3.41v.85c0,.28,0,.56,0,.84q0,.86-.09,1.68a2.15,2.15,0,0,1-.33,1,1.6,1.6,0,0,1-.41.41,2.07,2.07,0,0,1-.5.24,3.53,3.53,0,0,1-.93.13c-.29,0-.56,0-.82,0H37.63l-1.57,0H34Z" fill="none" stroke="#fff" stroke-linecap="round" stroke-linejoin="round"/><path d="M.55,29.42s0,0,0-.07a.63.63,0,0,1,.4-.24c.17,0,.34.09.52.35a.19.19,0,0,1,0,.08c0,.25,0,.52,0,.77,0,.07,0,.13,0,.19v.18a.76.76,0,0,0,0,.16l0,.08v0h0s0,0,0,0a.42.42,0,0,0,0,.12.47.47,0,0,0,0,.1.41.41,0,0,0,.05.09,1.38,1.38,0,0,0,.8.52l.26.05.15,0,.16,0,.65.06c.43,0,.86.08,1.29.11s.87.06,1.3.08c1.73.09,3.48.1,5.23.1s3.5,0,5.25,0l5.25.06,10.5.1h3.92c.43,0,.89,0,1.33,0l1.32,0,1.31,0h1.3a5.59,5.59,0,0,0,1.19-.09l.26-.08.24-.1a.84.84,0,0,0,.29-.27,1,1,0,0,0,.14-.41,3.48,3.48,0,0,0,0-.56c0-.2,0-.42-.06-.64h-.17c-.1,0-.21,0-.31,0h-.64c-.42,0-.86,0-1.31,0l-1.31,0-2.63,0c-1.75,0-3.5,0-5.24-.05l-5.25,0c-1.38,0-2.75,0-4.12,0l-4.12-.08-8.22-.16L4.53,29.8l-.89-.09-.83-.09L2,29.51c-.23,0-.42-.07-.57-.1a1.35,1.35,0,0,1-.34-.11c-.17-.06-.2-.12-.15-.16A1,1,0,0,1,1.3,29c.09,0,.2,0,.32,0L2,29l.36,0,.93-.06,1.37-.05L11.3,29l7.82.15,3.92.08,3.9,0,5.25,0c1.76,0,3.51,0,5.26.05l2.62,0,1.31,0H43l.34,0,.35,0,.17,0H44l.17,0,.32.05.16,0h0s0,0,0,0v.08l0,.66c0,.23,0,.43.07.67a4.75,4.75,0,0,1,0,.75,2,2,0,0,1-.28.83,1.89,1.89,0,0,1-.66.6,3.76,3.76,0,0,1-.37.16,2.59,2.59,0,0,1-.37.11,5.92,5.92,0,0,1-1.42.12H40.42l-1.32,0-1.3,0c-.44,0-.85,0-1.29,0h-4l-10.5-.1-5.25-.06c-1.75,0-3.5,0-5.25,0s-3.5,0-5.27-.1c-.44,0-.88,0-1.32-.08S4.08,33,3.64,33L3,32.88l-.16,0-.18,0a2.57,2.57,0,0,1-.38-.08,2.52,2.52,0,0,1-.74-.32,2.24,2.24,0,0,1-.61-.58,1.18,1.18,0,0,1-.11-.19,1.74,1.74,0,0,1-.1-.19c0-.07,0-.13-.07-.19v0h0v-.06l0-.13c0-.09,0-.17,0-.25v-.24c0-.08,0-.16,0-.23A9.08,9.08,0,0,1,.55,29.42Z" fill="none" stroke="#fff" stroke-linecap="round" stroke-linejoin="round"/><path d="M19.14,30.85a.07.07,0,0,1,.05,0l.08,0a.22.22,0,0,1,.08,0,.13.13,0,0,1,.12.06.16.16,0,0,1,0,.12.27.27,0,0,0,0,.15h0a0,0,0,0,0,0,0,.36.36,0,0,0,.12.08l.14.06a4,4,0,0,0,.72.11c.24,0,.5,0,.75,0h3.1c.26,0,.51,0,.75,0a1.74,1.74,0,0,0,.34-.05.69.69,0,0,0,.26-.12l0,0h0l-.13-.07A2.44,2.44,0,0,0,25,31H23.49l-2.09,0L21,30.87l-.42,0-.21,0h-.46l-.19,0c-.08,0-.11,0-.08-.06a.36.36,0,0,1,.17-.09,2.46,2.46,0,0,1,.35-.11l.05,0,.15,0h.47l.69,0,2.17,0H25l.21,0a2.59,2.59,0,0,1,.4.09,1.74,1.74,0,0,1,.41.16l.1.07,0,0,0,0,.06.07a.43.43,0,0,1,.1.34.56.56,0,0,1-.07.18s0,.05-.06.07l0,.06a1.3,1.3,0,0,1-.2.15,1.28,1.28,0,0,1-.44.15,3.05,3.05,0,0,1-.41.05c-.27,0-.53,0-.78,0h-3c-.26,0-.52,0-.78,0a4.81,4.81,0,0,1-.8-.14l-.23-.09a1.07,1.07,0,0,1-.22-.15l-.06-.05-.05-.07a.41.41,0,0,1-.05-.09.36.36,0,0,1,0-.09A.41.41,0,0,1,19.14,30.85Z" fill="none" stroke="#fff" stroke-linecap="round" stroke-linejoin="round"/></g></g></svg>