<svg xmlns="http://www.w3.org/2000/svg" viewBox="0 0 39.2 39.21"><g id="b445dd44-1b58-48f3-8a3a-5d33b93cdcbf" data-name="Layer 2"><g id="a72a64bd-1291-4819-8ff7-4948a12c09d7" data-name="Capa 1"><path d="M17.61.1A19.61,19.61,0,1,0,39.09,21.63,19.65,19.65,0,0,0,17.61.1ZM11.49,9.41c1.65,0,3,1.72,3,3.85s-1.34,3.85-3,3.85-3-1.73-3-3.85S9.84,9.41,11.49,9.41ZM28.74,26.9a8,8,0,0,1-2.2,2.4,12,12,0,0,1-7,2.13A12.67,12.67,0,0,1,14,30.2a8.63,8.63,0,0,1-3.69-3.3,6,6,0,0,1-.84-3,.81.81,0,1,1,1.61,0,4.33,4.33,0,0,0,.62,2.22A6.31,6.31,0,0,0,13.44,28a10.41,10.41,0,0,0,6.08,1.82,11,11,0,0,0,4.82-1.07,7,7,0,0,0,3-2.66A4.43,4.43,0,0,0,28,23.87a.81.81,0,1,1,1.61,0A6,6,0,0,1,28.74,26.9Zm-1.2-9.79c-1.65,0-3-1.73-3-3.85s1.34-3.85,3-3.85,3,1.72,3,3.85S29.19,17.11,27.54,17.11Z" fill="#fff"/></g></g></svg>