<svg xmlns="http://www.w3.org/2000/svg" viewBox="0 0 25.56 33.36"><g id="bcd099ff-d6e0-4ae5-9d5c-436b7001f5b6" data-name="Layer 2"><g id="bc6abdc5-4a2a-4b65-a0b6-8b88d4e5f46e" data-name="Capa 1"><path d="M16.5,10l-7.91,7.9a.33.33,0,0,0,0,.47.34.34,0,0,0,.48,0l7.9-7.9A.33.33,0,0,0,16.5,10Z" fill="#fff"/><path d="M15.49,15.1l-4,4a.18.18,0,0,0,0,.27.2.2,0,0,0,.27,0l4-4a.19.19,0,0,0,0-.27A.21.21,0,0,0,15.49,15.1Z" fill="#fff"/><path d="M1.55,0A1.54,1.54,0,0,0,0,1.55V31.81a1.55,1.55,0,0,0,1.55,1.55H24a1.55,1.55,0,0,0,1.54-1.55V1.55A1.54,1.54,0,0,0,24,0ZM13,.74a.36.36,0,1,1-.35.35A.36.36,0,0,1,13,.74ZM11.72,2.09h2.46a.31.31,0,0,1,.31.32.32.32,0,0,1-.31.32H11.72a.32.32,0,0,1-.31-.32A.31.31,0,0,1,11.72,2.09Zm-1.09,0a.28.28,0,0,1,.28.28.28.28,0,0,1-.56,0A.28.28,0,0,1,10.63,2.13Zm2.15,30a1.59,1.59,0,1,1,1.59-1.59A1.59,1.59,0,0,1,12.78,32.17ZM23,28.2H2.55V3.77H23Z" fill="#fff"/></g></g></svg>