<svg xmlns="http://www.w3.org/2000/svg" viewBox="0 0 38.36 38.36"><g id="faf5a2de-96f6-47c9-a50e-825c6b864022" data-name="Layer 2"><g id="e16b9df4-2db1-4245-9053-27a3ba297ad8" data-name="Capa 1"><path d="M20.87,12.94a8.74,8.74,0,0,0-1.73-.6c-.44-.15-1-1.4-4.12-.58.28.94,2-.44,3.61,1.58,1.59.44,2.82-.14,3.39.58.44.44,1.11.15,1.24-.58S21.45,13.26,20.87,12.94Z" fill="#fff"/><path d="M17.22.1a19.18,19.18,0,1,0,21,21A19.23,19.23,0,0,0,17.22.1ZM7,29.5c.51.8-1.32,1.23-1,1.8a9.73,9.73,0,0,1,1,1.69c-.3-.26-.6-.52-.89-.8A18.37,18.37,0,0,1,.88,20.92c1.37.81,3.53,4.32,6.12,5C7.65,26.39,6.49,28.7,7,29.5ZM9.05,7.61h0C9,8.15,8.58,8.73,7.52,9.38h0c-.2.27-1.1.65-1.19.88s-.35.32-.69.42a3.77,3.77,0,0,0-1.25.85c-.12.21-.28.1-1,.29h0a4.61,4.61,0,0,1-1.17.36A18.32,18.32,0,0,1,6.07,6.29,8.08,8.08,0,0,1,7.88,5l1.37-.85C9,4.81,9,5.24,8.68,5.59,8.65,6,9.26,7,9.05,7.61ZM36.71,24.74a18.5,18.5,0,0,1-4.52,7.45,21.16,21.16,0,0,1-1.68,1.46,2.23,2.23,0,0,1-.35.17c.32-2.29.74-3.06,2-3.61a2.13,2.13,0,0,0,1.49-2.39c0-1.71,2.23-2.62,3.07-3.2A.6.6,0,0,1,36.71,24.74ZM34.51,18l.15.14c.26.05.51.32.7,1,.65,2.31.36,3.18-.44,3.18s-1-1.1-1.4-2.23a1.94,1.94,0,0,1-.51-.6c-.65-1.08-1.52-3.9-2.61-4.11-.5-.11-.58.61-.73,1.41a2.05,2.05,0,0,0,.23,1.37,1.74,1.74,0,0,0-.61.67c-.14.38-.71,0-1.08,0-.84.41-1.57-.2-1.76-1.2-.56-.93-.93-2-1.68-1.61.65.86.87,3.68,1.52,4.33,1.95,0,2.16-1.52,1.74,1.09A7.53,7.53,0,0,1,27.59,23,2.48,2.48,0,0,1,27,24.62c-.28.27-1.13.94-1.23,1.08.15.5-.33.73-.51.91a.88.88,0,0,0,0,.21,1.59,1.59,0,0,0,.85.3c1.09-.09,2.7-.62,1.47.75L26.4,28.94a.29.29,0,0,1,0,.2c-.12.24-.32.7-.42.88.08.34,0,.31-.35.18-.37.19-.32-.07-.49-.39L25,29.54A.75.75,0,0,1,25,29.3c0-.11-.05-.22-.08-.35h0a.77.77,0,0,0-.43-.64c-1.09-.43-.56,1.52-2.08,3.25-2.59,1.95-3,.22-4.33-1.52s.8-2.09.29-5.24a7.68,7.68,0,0,1-2-2.78h-.68c-.19,0-.14.19-.47.16s-1-.16-1.43-.16-.49.16-.82,0a1.83,1.83,0,0,0-.86.19.68.68,0,0,1-.94-.19s-2-2.81-1.52-4.76,1.3-2.39,3-3.91c-.29-1.08-1.3-.36-1.15-1.73.36-2.46,2.23-.65,2.6-2.16a.48.48,0,0,0-.4-.65c-.47-.05-1,.48-1.52.37s-.91-.23-.45-.77h0a1.83,1.83,0,0,1,.2-.26c.28-.31.55-.6.8-.84A3.52,3.52,0,0,1,13.07,7c.18-.56.46-1.09,1.13-.88s.16.63.23,1.08c.38,2.44,1,2,1.38,1.56-.14-.72,2-.36,1.08-.79a.91.91,0,0,1-.24-.2c-.18-.15-.3-.3-.27-.49s-.06-.35.06-.52a.68.68,0,0,1,.09-.48A2.41,2.41,0,0,1,16.61,6h0c0-.21.18-.69.32-.75a.35.35,0,0,1,.11,0,3,3,0,0,1,1.17-.89.53.53,0,0,0,0-.12c0-.11.54-.11.54-.11l.07,0a7.51,7.51,0,0,1,.9-.13h0a2.34,2.34,0,0,0,.65-.28s.56,0,.58.27h0l.27,0c.16,0,.28-.11.47-.15s.38.27.72.57a.81.81,0,0,1,.33.88c.86,0,3.1-1.6,3.1-1.6s3,.87,2.68,1.74a4.8,4.8,0,0,0-3.62,0c-.43.16.94.65,2.53.65,4,.07,7.58,4.2,9,6.84.19.52.35,1,.49,1.59C36.92,16.34,34.6,17.22,34.51,18Z" fill="#fff"/></g></g></svg>